<?xml version="1.0" encoding="UTF-8"?>
<svg width="58px" height="58px" viewBox="0 0 58 58" version="1.1" xmlns="http://www.w3.org/2000/svg" xmlns:xlink="http://www.w3.org/1999/xlink">
    <!-- Generator: Sketch 41 (35326) - http://www.bohemiancoding.com/sketch -->
    <title>reduce-churn</title>
    <desc>Created with Sketch.</desc>
    <defs></defs>
    <g id="Page-1" stroke="none" stroke-width="1" fill="none" fill-rule="evenodd">
        <g id="reduce-churn" transform="translate(1.000000, 1.000000)" stroke="#5092DA" stroke-width="2">
            <circle id="Oval" cx="43.7283951" cy="43.7283951" r="12.0987654"></circle>
            <path d="M43.5555556,37.6790123 L43.5555556,49.7777778" id="Shape"></path>
            <path d="M49.7777778,43.5555556 L37.6790123,43.5555556" id="Shape"></path>
            <path d="M32.7572346,31.1021235 C30.8770864,30.4802469 28.8493333,29.8123951 26.7901235,29.0356543 L26.7901235,22.9862716 C26.7901235,22.9862716 30.4197531,21.4884444 30.4197531,15.7270123 C32.312,15.7270123 32.312,10.7157037 30.4197531,10.7157037 C30.4197531,10.1519012 32.4257284,6.82716049 31.6296296,3.62824691 C30.4826667,-0.978962963 17.0481975,-0.978962963 15.9012346,3.62824691 C10.1688395,2.47402469 13.4814815,10.1156049 13.4814815,10.8875062 C11.5868148,10.8875062 11.5868148,15.7270123 13.4814815,15.7270123 C13.4814815,21.4884444 17.1111111,22.9862716 17.1111111,22.9862716 L17.1111111,29.0356543 C10.389037,31.5909136 2.37965432,33.2847407 1.38271605,36.2949136 C0.235753086,39.7527407 0.172839506,46.1481481 0.172839506,46.1481481 L25.5802469,46.1481481" id="Shape" fill="#FFF7E0"></path>
        </g>
    </g>
</svg>