<svg xmlns="http://www.w3.org/2000/svg" width="61.92" height="58.49" viewBox="0 0 61.92 58.49"><title>AheadOfChurn</title><path d="M.92,14.2v-5A6.27,6.27,0,0,1,7.18,2.89h8.09V14.54Z" style="fill:#fff7f6"/><path d="M31.76,46.61v5a6.27,6.27,0,0,1-6.26,6.26H7.28A6.27,6.27,0,0,1,1,51.66v-5" style="fill:#fff7f6"/><path d="M32.67,36.15V51.73a5.76,5.76,0,0,1-5.76,5.76H6.76A5.76,5.76,0,0,1,1,51.73V8.55A5.76,5.76,0,0,1,6.76,2.79H15.4" style="fill:none;stroke:#5092de;stroke-miterlimit:10;stroke-width:2px"/><line x1="15.4" y1="14.31" x2="1" y2="14.31" style="fill:#fff7e0;stroke:#5092de;stroke-miterlimit:10;stroke-width:2px"/><line x1="32.67" y1="45.98" x2="1" y2="45.98" style="fill:#fff7e0;stroke:#5092de;stroke-miterlimit:10;stroke-width:2px"/><line x1="12.52" y1="8.55" x2="15.4" y2="8.55" style="fill:#fff7e0;stroke:#5092de;stroke-miterlimit:10;stroke-width:2px"/><path d="M60.92,25.64A4.32,4.32,0,0,1,56.6,30H47.09l-8.64,8.64V30h-11a4.32,4.32,0,0,1-4.32-4.32V5.32A4.32,4.32,0,0,1,27.46,1H56.6a4.32,4.32,0,0,1,4.32,4.32Z" style="fill:#fff7f6;stroke:#5092da;stroke-miterlimit:10;stroke-width:2px"/><path d="M18.27,51.73a1.44,1.44,0,0,1-1.44,1.44h0a1.44,1.44,0,0,1-1.44-1.44h0a1.44,1.44,0,0,1,1.44-1.44h0a1.44,1.44,0,0,1,1.44,1.44Z" style="fill:#fff7e0;stroke:#5092de;stroke-miterlimit:10;stroke-width:2px"/><polygon points="31.8 23.56 53.5 23.56 42.65 5.5 31.8 23.56" style="fill:#fff7f6;stroke:#5092da;stroke-miterlimit:10;stroke-width:2px"/><line x1="42.65" y1="11.84" x2="42.65" y2="17.28" style="fill:#fff7e0;stroke:#5092de;stroke-miterlimit:10;stroke-width:2px"/><path d="M42.65,19a1.09,1.09,0,1,0,1.09,1.09A1.09,1.09,0,0,0,42.65,19Z" style="fill:#5092de"/></svg>