<svg xmlns="http://www.w3.org/2000/svg" width="62" height="48.96" viewBox="0 0 62 48.96"><title>ApiFirst</title><path d="M1,14V6.22A5.22,5.22,0,0,1,6.22,1H55.78A5.22,5.22,0,0,1,61,6.22V14" style="fill:#f2f7fd"/><path d="M61,42.74A5.22,5.22,0,0,1,55.78,48H6.22A5.22,5.22,0,0,1,1,42.74V6.22A5.22,5.22,0,0,1,6.22,1H55.78A5.22,5.22,0,0,1,61,6.22Z" style="fill:none;stroke:#5092da;stroke-miterlimit:10;stroke-width:2px"/><line x1="1" y1="14.04" x2="61" y2="14.04" style="fill:none;stroke:#5092da;stroke-miterlimit:10;stroke-width:2px"/><circle cx="10.13" cy="7.52" r="1.3" style="fill:none;stroke:#5092da;stroke-miterlimit:10;stroke-width:2px"/><circle cx="17.96" cy="7.52" r="1.3" style="fill:none;stroke:#5092da;stroke-miterlimit:10;stroke-width:2px"/><circle cx="25.78" cy="7.52" r="1.3" style="fill:none;stroke:#5092da;stroke-miterlimit:10;stroke-width:2px"/><line x1="11.17" y1="14.04" x2="11.17" y2="47.96" style="fill:none;stroke:#5092da;stroke-miterlimit:10;stroke-width:2px"/><line x1="15.94" y1="19.75" x2="21.78" y2="19.75" style="fill:none;stroke:#5092da;stroke-miterlimit:10;stroke-width:2px"/><line x1="19.77" y1="23.02" x2="26.89" y2="23.02" style="fill:none;stroke:#5092da;stroke-miterlimit:10;stroke-width:2px"/><line x1="29.12" y1="23.02" x2="39.74" y2="23.02" style="fill:none;stroke:#5092da;stroke-miterlimit:10;stroke-width:2px"/><line x1="42.36" y1="23.02" x2="44.33" y2="23.02" style="fill:none;stroke:#5092da;stroke-miterlimit:10;stroke-width:2px"/><line x1="19.77" y1="26.28" x2="33.31" y2="26.28" style="fill:none;stroke:#5092da;stroke-miterlimit:10;stroke-width:2px"/><line x1="35.48" y1="26.28" x2="38.43" y2="26.28" style="fill:none;stroke:#5092da;stroke-miterlimit:10;stroke-width:2px"/><line x1="15.94" y1="29.55" x2="19.77" y2="29.55" style="fill:none;stroke:#5092da;stroke-miterlimit:10;stroke-width:2px"/><line x1="19.77" y1="32.81" x2="30.69" y2="32.81" style="fill:none;stroke:#5092da;stroke-miterlimit:10;stroke-width:2px"/><line x1="32.75" y1="32.81" x2="35.73" y2="32.81" style="fill:none;stroke:#5092da;stroke-miterlimit:10;stroke-width:2px"/><line x1="16.01" y1="36.08" x2="18.86" y2="36.08" style="fill:none;stroke:#5092da;stroke-miterlimit:10;stroke-width:2px"/><line x1="19.77" y1="39.34" x2="24.24" y2="39.34" style="fill:none;stroke:#5092da;stroke-miterlimit:10;stroke-width:2px"/><line x1="16.01" y1="42.61" x2="18.86" y2="42.61" style="fill:none;stroke:#5092da;stroke-miterlimit:10;stroke-width:2px"/></svg>