<svg width="62px" height="56px" viewBox="0 0 62 56" version="1.1" xmlns="http://www.w3.org/2000/svg">
    <title>icon</title>
    <desc>Created with Sketch.</desc>
    <defs></defs>
    <g id="Page-1" stroke="none" stroke-width="1" fill="none" fill-rule="evenodd">
        <g id="Landing-Page---Final" transform="translate(-672.000000, -1492.000000)">
            <g id="Module---Turn-Payments" transform="translate(197.000000, 1284.000000)">
                <g id="icon" transform="translate(476.000000, 209.000000)">
                    <path d="M59.893,11.446 C59.893,17.768 54.768,22.892 48.447,22.892 C42.125,22.892 37,17.768 37,11.446 C37,5.124 42.125,0 48.447,0 C54.768,0 59.893,5.124 59.893,11.446" id="Fill-1" fill="#F2F8FD"></path>
                    <path d="M59.893,11.446 C59.893,17.768 54.768,22.892 48.447,22.892 C42.125,22.892 37,17.768 37,11.446 C37,5.124 42.125,0 48.447,0 C54.768,0 59.893,5.124 59.893,11.446 Z" id="Stroke-3" stroke="#5092DA" stroke-width="1.5"></path>
                    <path d="M48.092,5 C49.799,5 51.184,6.384 51.184,8.092 C51.184,9.799 49.799,11.183 48.092,11.183 C46.385,11.183 45,9.799 45,8.092 C45,6.384 46.385,5 48.092,5" id="Fill-5" fill="#F2F8FD"></path>
                    <path d="M48.092,5 C49.799,5 51.184,6.384 51.184,8.092 C51.184,9.799 49.799,11.183 48.092,11.183 C46.385,11.183 45,9.799 45,8.092 C45,6.384 46.385,5 48.092,5 Z" id="Stroke-7" stroke="#5092DA" stroke-width="1.5"></path>
                    <path d="M53.305,17.183 L43,17.183 C43,13.768 45.306,11 48.152,11 C50.999,11 53.305,13.768 53.305,17.183" id="Fill-9" fill="#F2F8FD"></path>
                    <path d="M53.305,17.183 L43,17.183 C43,13.768 45.306,11 48.152,11 C50.999,11 53.305,13.768 53.305,17.183 Z" id="Stroke-11" stroke="#5092DA" stroke-width="1.5"></path>
                    <path d="M41.344,42.672 C41.344,48.566 36.566,53.344 30.672,53.344 C24.778,53.344 20,48.566 20,42.672 C20,36.778 24.778,32 30.672,32 C36.566,32 41.344,36.778 41.344,42.672" id="Fill-13" fill="#F2F8FD"></path>
                    <path d="M41.344,42.672 C41.344,48.566 36.566,53.344 30.672,53.344 C24.778,53.344 20,48.566 20,42.672 C20,36.778 24.778,32 30.672,32 C36.566,32 41.344,36.778 41.344,42.672 Z" id="Stroke-15" stroke="#5092DA" stroke-width="1.5"></path>
                    <path d="M30.882,36 C32.474,36 33.764,37.29 33.764,38.882 C33.764,40.474 32.474,41.765 30.882,41.765 C29.29,41.765 28,40.474 28,38.882 C28,37.29 29.29,36 30.882,36" id="Fill-17" fill="#F2F8FD"></path>
                    <path d="M30.882,36 C32.474,36 33.764,37.29 33.764,38.882 C33.764,40.474 32.474,41.765 30.882,41.765 C29.29,41.765 28,40.474 28,38.882 C28,37.29 29.29,36 30.882,36 Z" id="Stroke-19" stroke="#5092DA" stroke-width="1.5"></path>
                    <path d="M35.608,47.765 L26,47.765 C26,44.581 28.15,42 30.804,42 C33.458,42 35.608,44.581 35.608,47.765" id="Fill-21" fill="#F2F8FD"></path>
                    <path d="M35.608,47.765 L26,47.765 C26,44.581 28.15,42 30.804,42 C33.458,42 35.608,44.581 35.608,47.765 Z" id="Stroke-23" stroke="#5092DA" stroke-width="1.5"></path>
                    <path d="M20.146,19.073 C20.146,24.636 15.636,29.146 10.073,29.146 C4.51,29.146 0,24.636 0,19.073 C0,13.51 4.51,9 10.073,9 C15.636,9 20.146,13.51 20.146,19.073" id="Fill-25" fill="#F2F8FD"></path>
                    <path d="M20.146,19.073 C20.146,24.636 15.636,29.146 10.073,29.146 C4.51,29.146 0,24.636 0,19.073 C0,13.51 4.51,9 10.073,9 C15.636,9 20.146,13.51 20.146,19.073 Z" id="Stroke-27" stroke="#5092DA" stroke-width="1.5"></path>
                    <path d="M9.721,13 C11.224,13 12.442,14.218 12.442,15.721 C12.442,17.223 11.224,18.441 9.721,18.441 C8.218,18.441 7,17.223 7,15.721 C7,14.218 8.218,13 9.721,13" id="Fill-29" fill="#F2F8FD"></path>
                    <path d="M9.721,13 C11.224,13 12.442,14.218 12.442,15.721 C12.442,17.223 11.224,18.441 9.721,18.441 C8.218,18.441 7,17.223 7,15.721 C7,14.218 8.218,13 9.721,13 Z" id="Stroke-31" stroke="#5092DA" stroke-width="1.5"></path>
                    <path d="M14.069,24.441 L5,24.441 C5,21.436 7.03,19 9.535,19 C12.039,19 14.069,21.436 14.069,24.441" id="Fill-33" fill="#F2F8FD"></path>
                    <path d="M14.069,24.441 L5,24.441 C5,21.436 7.03,19 9.535,19 C12.039,19 14.069,21.436 14.069,24.441 Z" id="Stroke-35" stroke="#5092DA" stroke-width="1.5"></path>
                    <g id="Group-40" transform="translate(18.000000, 28.469400)">
                        <path d="M0,0 L4.092,4.898" id="Fill-37" fill="#F2F8FD"></path>
                        <path d="M0,0 L4.092,4.898" id="Stroke-39" stroke="#5092DA" stroke-width="1.5"></path>
                    </g>
                    <g id="Group-44" transform="translate(35.000000, 23.469400)">
                        <path d="M0,7.882 L4.671,0" id="Fill-41" fill="#F2F8FD"></path>
                        <path d="M0,7.882 L4.671,0" id="Stroke-43" stroke="#5092DA" stroke-width="1.5"></path>
                    </g>
                </g>
            </g>
        </g>
    </g>
</svg>
