<svg width="60px" height="48px" viewBox="0 0 60 48" version="1.1" xmlns="http://www.w3.org/2000/svg">
    <defs></defs>
    <g id="Page-1" stroke="none" stroke-width="1" fill="none" fill-rule="evenodd">
        <g id="Desktop-Copy-2" transform="translate(-930.000000, -749.000000)">
            <g id="1bn" transform="translate(128.000000, 585.000000)">
                <rect id="Rectangle-7" x="0" y="0" width="1024" height="381"></rect>
                <g id="Group-+-Fully-automated-+-Save-time,-stop-huma-+-Fill-2730-+-Fill-2731-+-Ultra-low-fees-+-Less-than-half-the-c-+-Fill-1659-+-Fill-1660-+-12,000+-merchants-+-Powering-payments-fo" transform="translate(42.000000, 152.000000)">
                    <g id="Fill-1659-+-Fill-1660-+-12,000+-merchants-+-Powering-payments-fo" transform="translate(640.000000, 12.000000)">
                        <g id="Fill-1659-+-Fill-1660" transform="translate(120.000000, 0.000000)">
                            <path d="M38,45.391 L2,45.391 L2,35.55 C2.777,34.47 8.871,30.92 15.372,28.32 C15.751,28.161 16,27.801 16,27.391 L16,22.39 C16,21.951 15.718,21.57 15.302,21.43 C15.283,21.43 13.348,20.62 13.348,16.13 C13.348,15.58 12.926,15.13 12.373,15.13 C12.1,15.03 11.569,13.88 11.774,12.78 C11.904,12.08 12.204,12.08 12.348,12.08 C12.9,12.08 13.348,11.641 13.348,11.08 C13.348,10.75 13.215,10.42 12.886,9.64 C12.552,8.86 11.536,6.46 11.96,5.82 C12.058,5.67 12.448,5.661 12.566,5.661 C12.804,5.661 13.087,5.69 13.409,5.76 C13.933,5.871 14.449,5.54 14.579,5.02 C15.098,2.94 18.362,2 21.174,2 C23.987,2 27.25,2.94 27.769,5.02 C28.248,6.94 27.429,8.781 26.94,9.88 C26.702,10.42 26.559,10.741 26.559,11.08 C26.559,11.641 27.007,12.08 27.559,12.08 C27.684,12.08 27.942,12.08 28.065,12.741 C28.27,13.83 27.723,15.03 27.479,15.13 C26.927,15.13 26.479,15.58 26.479,16.13 C26.479,20.61 24.675,21.44 24.679,21.44 C24.274,21.58 24,21.96 24,22.39 L24,27.391 C24,27.801 24.249,28.161 24.629,28.32 C31.129,30.92 37.224,34.47 38,35.55 L38,45.391 L38,45.391 Z" id="Path" fill="#FEF0EF"></path>
                            <path d="M59.0000008,46.6979675 L43.3665741,46.6979675 L43.3665741,34.6648979 C44.0003186,33.7591525 40.486831,30.1968179 40.486831,29.8529701 L41.0561407,26.100138 C41.0561407,25.7319693 40.826133,25.4124424 40.486831,25.295031 C40.471334,25.295031 38.89309,24.6157219 38.89309,20.8501692 C38.89309,20.38891 38.5488941,20.011516 38.0978508,20.011516 C37.8751838,19.9276507 37.4420843,18.9631996 37.6092884,18.0406811 C37.7153203,17.4536239 37.9600093,17.4536239 38.07746,17.4536239 C38.5276878,17.4536239 38.89309,17.0854551 38.89309,16.6149707 C38.89309,16.3382152 38.7846112,16.0614596 38.5162689,15.4073102 C38.2438485,14.7531607 37.4151685,12.7403931 37.7609956,12.2036551 C37.8409273,12.0778571 38.159023,12.0703092 38.2552674,12.0703092 C38.4493873,12.0703092 38.6802106,12.0946302 38.9428434,12.1533359 C39.3702335,12.2464264 39.7910986,11.9688322 39.8971305,11.5327326 C40.3204424,9.78833397 42.9826587,9 45.2762101,9 C47.5705772,9 50.2319778,9.78833397 50.6552898,11.5327326 C51.0459765,13.1429466 50.3779756,14.6869071 49.9791325,15.6085869 C49.7850126,16.0614596 49.6683775,16.3306673 49.6683775,16.6149707 C49.6683775,17.0854551 50.0337797,17.4536239 50.4840075,17.4536239 C50.5859612,17.4536239 50.7963938,17.4536239 50.8967163,18.0079736 C51.0639204,18.9212669 50.6177708,19.9276507 50.4187571,20.011516 C49.9685293,20.011516 49.6031271,20.38891 49.6031271,20.8501692 C49.6031271,24.6073354 48.1317307,25.3034175 48.1349932,25.3034175 C47.804663,25.4208289 47.5811804,25.7395171 47.5811804,26.100138 L47.5811804,30.2942425 C47.5811804,30.6380903 47.7842723,30.9400054 48.0942117,31.0733512 C53.3958065,33.2538495 58.3670719,34.1762172 59.0000008,35.0819626 L59,45.3899994 L59.0000008,46.6979675 Z" id="Path" fill="#FEF0EF"></path>
                            <path d="M38,45.391 L2,45.391 L2,35.55 C2.777,34.47 8.871,30.92 15.372,28.32 C15.751,28.161 16,27.801 16,27.391 L16,22.39 C16,21.951 15.718,21.57 15.302,21.43 C15.283,21.43 13.348,20.62 13.348,16.13 C13.348,15.58 12.926,15.13 12.373,15.13 C12.1,15.03 11.569,13.88 11.774,12.78 C11.904,12.08 12.204,12.08 12.348,12.08 C12.9,12.08 13.348,11.641 13.348,11.08 C13.348,10.75 13.215,10.42 12.886,9.64 C12.552,8.86 11.536,6.46 11.96,5.82 C12.058,5.67 12.448,5.661 12.566,5.661 C12.804,5.661 13.087,5.69 13.409,5.76 C13.933,5.871 14.449,5.54 14.579,5.02 C15.098,2.94 18.362,2 21.174,2 C23.987,2 27.25,2.94 27.769,5.02 C28.248,6.94 27.429,8.781 26.94,9.88 C26.702,10.42 26.559,10.741 26.559,11.08 C26.559,11.641 27.007,12.08 27.559,12.08 C27.684,12.08 27.942,12.08 28.065,12.741 C28.27,13.83 27.723,15.03 27.479,15.13 C26.927,15.13 26.479,15.58 26.479,16.13 C26.479,20.61 24.675,21.44 24.679,21.44 C24.274,21.58 24,21.96 24,22.39 L24,27.391 C24,27.801 24.249,28.161 24.629,28.32 C31.129,30.92 37.224,34.47 38,35.55 L38,45.391 L38,45.391 Z M34.855,30.991 C32.216,29.5 28.952,27.931 26,26.71 L26,22.971 C26.886,22.33 28.303,20.721 28.464,16.86 C29.509,16.26 30.108,14.73 30.108,13.23 C30.108,12.44 29.929,11.74 29.593,11.2 C29.398,10.891 29.154,10.641 28.871,10.46 C29.439,9.17 30.317,6.97 29.71,4.54 C28.872,1.19 24.588,0 21.174,0 C18.071,0 14.248,0.98 12.95,3.681 C11.411,3.56 10.641,4.19 10.292,4.72 C9.275,6.25 10.34,8.76 11.044,10.42 C11.046,10.431 11.047,10.431 11.049,10.44 C10.742,10.621 10.477,10.88 10.267,11.21 C9.916,11.76 9.731,12.471 9.731,13.281 C9.731,14.75 10.326,16.27 11.364,16.86 C11.539,20.71 13.073,22.341 14,22.971 L14,26.71 C11.048,27.931 7.784,29.5 5.145,30.991 C0,33.891 0,34.83 0,35.391 L0,46.39 C0,46.94 0.448,47.391 1,47.391 L39,47.391 C39.552,47.391 40,46.94 40,46.39 L40,35.391 C40,34.83 40,33.891 34.855,30.991 L34.855,30.991 Z" id="Fill-1659" fill="#5092DA"></path>
                            <path d="M53.351,31.47 C51.636,30.94 49.718,30.35 48,29.701 L48,27.051 C49.063,26.5 50.922,25.08 51.151,21.84 C52.001,21.22 52.441,19.77 52.441,18.35 C52.441,17.15 52.108,16.21 51.534,15.67 C52.136,14.6 53.041,12.741 52.384,10.77 C51.517,8.17 47.935,7.25 45.131,7.25 C42.623,7.25 39.494,7.98 38.24,10 C37.285,9.94 36.564,10.201 36.084,10.77 C35.015,12.03 35.793,14.19 36.317,15.56 C36.065,15.75 35.849,16.02 35.685,16.341 C35.344,17 35.273,17.781 35.273,18.321 C35.273,19.77 35.723,21.23 36.593,21.85 C36.832,24.83 38.622,26.431 40,27.08 L40,29.391 C40,29.94 40.448,30.391 41,30.391 C41.552,30.391 42,29.94 42,29.391 L42,26.391 C42,25.93 41.691,25.53 41.248,25.42 C41.221,25.411 38.566,24.69 38.566,21.17 C38.566,20.67 38.201,20.26 37.724,20.181 C37.518,19.93 37.224,19.05 37.279,18.09 C37.318,17.42 37.508,17.15 37.566,17.13 C37.831,17.13 38.085,17.02 38.273,16.83 C38.46,16.65 38.566,16.39 38.566,16.13 C38.566,15.83 38.456,15.54 38.239,14.98 C37.395,12.79 37.483,12.21 37.61,12.06 C37.638,12.02 37.911,11.92 38.626,12.06 C39.121,12.17 39.615,11.88 39.775,11.4 C40.191,10.15 42.443,9.25 45.131,9.25 C47.818,9.25 50.07,10.15 50.486,11.4 C50.928,12.73 50.112,14.13 49.624,14.98 C49.344,15.46 49.174,15.75 49.174,16.13 C49.174,16.681 49.607,17.121 50.159,17.121 C50.236,17.17 50.412,17.52 50.438,18.181 C50.474,19.141 50.195,19.951 50.01,20.181 C49.536,20.26 49.174,20.67 49.174,21.17 C49.174,24.65 46.823,25.4 46.733,25.42 C46.3,25.54 46,25.94 46,26.391 L46,30.391 C46,30.801 46.249,31.161 46.629,31.32 C48.573,32.091 50.799,32.781 52.763,33.38 C54.711,33.98 57.337,34.79 58,35.28 L58,45.391 L45,45.391 C44.448,45.391 44,45.84 44,46.39 C44,46.94 44.448,47.391 45,47.391 L59,47.391 C59.552,47.391 60,46.94 60,46.39 L60,35.04 C60,33.58 58.081,32.931 53.351,31.47" id="Fill-1660" fill="#5092DA"></path>
                        </g>
                    </g>
                </g>
            </g>
        </g>
    </g>
</svg>
