<svg width="60px" height="60px" viewBox="0 0 60 60" version="1.1" xmlns="http://www.w3.org/2000/svg">
    <defs></defs>
    <g id="Page-1" stroke="none" stroke-width="1" fill="none" fill-rule="evenodd">
        <g id="Desktop-Copy-2" transform="translate(-849.000000, -1772.000000)">
            <g id="features" transform="translate(128.000000, 1696.000000)">
                <rect id="Rectangle-14" x="0" y="0" width="1024" height="478"></rect>
                <g id="Group" transform="translate(522.000000, 76.000000)">
                    <g transform="translate(199.000000, 0.000000)">
                        <path d="M58,57.999 L50,57.999 L50,54.999 C50,54.449 49.55,54 49,54 L45,54 C44.45,54 44,54.449 44,54.999 L44,57.999 L36,57.999 L36,13.999 L58,13.999 L58,57.999 L58,57.999 Z" id="Path" fill="#F2FAF2"></path>
                        <path d="M29,21.999 L24,21.999 L24,9 C24,8.449 23.55,7.999 23,7.999 L16,7.999 L16,0.999 C16,0.449 15.55,0 15,0 C14.45,0 14,0.449 14,0.999 L14,7.999 L7,7.999 C6.45,7.999 6,8.449 6,9 L6,21.999 L1,21.999 C0.45,21.999 0,22.449 0,22.999 L0,58.999 C0,59.549 0.45,60 1,60 L29,60 C29.55,60 30,59.549 30,58.999 L30,22.999 C30,22.449 29.55,21.999 29,21.999 L29,21.999 Z" id="Path" fill="#F2FAF2"></path>
                        <path d="M28,57.999 L18,57.999 L18,52.999 C18,52.449 17.55,51.999 17,51.999 L13,51.999 C12.45,51.999 12,52.449 12,52.999 L12,57.999 L2,57.999 L2,24 L28,24 L28,57.999 L28,57.999 Z M14,54 L16,54 L16,57.999 L14,57.999 L14,54 Z M8,9.999 L22,9.999 L22,21.999 L8,21.999 L8,9.999 Z M29,21.999 L24,21.999 L24,9 C24,8.449 23.55,7.999 23,7.999 L16,7.999 L16,0.999 C16,0.449 15.55,0 15,0 C14.45,0 14,0.449 14,0.999 L14,7.999 L7,7.999 C6.45,7.999 6,8.449 6,9 L6,21.999 L1,21.999 C0.45,21.999 0,22.449 0,22.999 L0,58.999 C0,59.549 0.45,60 1,60 L29,60 C29.55,60 30,59.549 30,58.999 L30,22.999 C30,22.449 29.55,21.999 29,21.999 L29,21.999 Z" id="Fill-3075" fill="#5092DA"></path>
                        <path d="M58,57.999 L50,57.999 L50,54.999 C50,54.449 49.55,54 49,54 L45,54 C44.45,54 44,54.449 44,54.999 L44,57.999 L36,57.999 L36,13.999 L58,13.999 L58,57.999 L58,57.999 Z M46,55.999 L48,55.999 L48,57.999 L46,57.999 L46,55.999 Z M59,12 L35,12 C34.45,12 34,12.449 34,12.999 L34,58.999 C34,59.549 34.45,60 35,60 L59,60 C59.55,60 60,59.549 60,58.999 L60,12.999 C60,12.449 59.55,12 59,12 L59,12 Z" id="Fill-3076" fill="#5092DA"></path>
                        <path d="M39,19.999 L55,19.999 C55.55,19.999 56,19.549 56,18.999 C56,18.449 55.55,18 55,18 L39,18 C38.45,18 38,18.449 38,18.999 C38,19.549 38.45,19.999 39,19.999" id="Fill-3077" fill="#5092DA"></path>
                        <path d="M39,37.999 L55,37.999 C55.55,37.999 56,37.549 56,36.999 C56,36.449 55.55,36 55,36 L39,36 C38.45,36 38,36.449 38,36.999 C38,37.549 38.45,37.999 39,37.999" id="Fill-3078" fill="#5092DA"></path>
                        <path d="M39,31.999 L55,31.999 C55.55,31.999 56,31.549 56,30.999 C56,30.449 55.55,30 55,30 L39,30 C38.45,30 38,30.449 38,30.999 C38,31.549 38.45,31.999 39,31.999" id="Fill-3079" fill="#5092DA"></path>
                        <path d="M39,25.999 L55,25.999 C55.55,25.999 56,25.549 56,24.999 C56,24.449 55.55,24 55,24 L39,24 C38.45,24 38,24.449 38,24.999 C38,25.549 38.45,25.999 39,25.999" id="Fill-3080" fill="#5092DA"></path>
                        <path d="M39,43.999 L55,43.999 C55.55,43.999 56,43.549 56,42.999 C56,42.449 55.55,42 55,42 L39,42 C38.45,42 38,42.449 38,42.999 C38,43.549 38.45,43.999 39,43.999" id="Fill-3081" fill="#5092DA"></path>
                        <path d="M39,49.999 L55,49.999 C55.55,49.999 56,49.549 56,48.999 C56,48.449 55.55,48 55,48 L39,48 C38.45,48 38,48.449 38,48.999 C38,49.549 38.45,49.999 39,49.999" id="Fill-3082" fill="#5092DA"></path>
                        <path d="M7,30 C6.45,30 6,30.449 6,30.999 C6,31.549 6.45,31.999 7,31.999 L23,31.999 C23.55,31.999 24,31.549 24,30.999 C24,30.449 23.55,30 23,30 L7,30" id="Fill-3083" fill="#5092DA"></path>
                        <path d="M23,37.999 L7,37.999 C6.45,37.999 6,38.449 6,39 C6,39.55 6.45,39.999 7,39.999 L23,39.999 C23.55,39.999 24,39.55 24,39 C24,38.449 23.55,37.999 23,37.999" id="Fill-3084" fill="#5092DA"></path>
                        <path d="M23,45.999 L7,45.999 C6.45,45.999 6,46.449 6,46.999 C6,47.549 6.45,48 7,48 L23,48 C23.55,48 24,47.549 24,46.999 C24,46.449 23.55,45.999 23,45.999" id="Fill-3085" fill="#5092DA"></path>
                        <path d="M19,12 L11,12 C10.45,12 10,12.449 10,12.999 C10,13.549 10.45,13.999 11,13.999 L19,13.999 C19.55,13.999 20,13.549 20,12.999 C20,12.449 19.55,12 19,12" id="Fill-3086" fill="#5092DA"></path>
                        <path d="M19,18 L11,18 C10.45,18 10,18.449 10,18.999 C10,19.549 10.45,19.999 11,19.999 L19,19.999 C19.55,19.999 20,19.549 20,18.999 C20,18.449 19.55,18 19,18" id="Fill-3087" fill="#5092DA"></path>
                    </g>
                </g>
            </g>
        </g>
    </g>
</svg>
