<svg width="61px" height="61px" viewBox="0 0 61 61" version="1.1" xmlns="http://www.w3.org/2000/svg">
    <!-- Generator: Sketch 41.2 (35397) - http://www.bohemiancoding.com/sketch -->
    <title>europe-icon</title>
    <desc>Created with Sketch.</desc>
    <g id="Page-1" stroke="none" stroke-width="1" fill="none" fill-rule="evenodd">
        <g id="europe-icon" transform="translate(1.000000, 1.000000)">
            <g id="Group-4" transform="translate(15.454545, 0.272273)">
                <g id="Fill-1-Clipped">
                    <g>
                        <mask id="mask-2" fill="white">
                            <path d="M0,54.8121622 C4.11883376,57.0392717 8.83457291,58.3036364 13.8455976,58.3036364 C29.9455976,58.3036364 42.9974158,45.2518182 42.9974158,29.1518182 C42.9974158,13.0518182 29.9455976,0 13.8455976,0 C8.83457291,0 4.11883376,1.26436467 0,3.49147417 L1.67946465e-13,54.8121622 L0,54.8121622 Z" id="path-1"></path>
                        </mask>
                        <g id="path-1"></g>
                        <path d="M51.8905067,-27 C49.1305067,-25.46 46.4314158,-23.7090909 44.0105067,-21.6745455 C42.5705067,-20.4636364 41.0550522,-19.0963636 40.2214158,-17.3763636 C39.043234,-14.9454545 39.0550522,-12.1309091 38.2205067,-9.59636364 C37.3368703,-6.91090909 35.1968703,-5.11636364 33.2941431,-3.11727273 C32.3750522,-2.15090909 31.4359613,-1.10636364 30.2977794,-0.390909091 C29.3414158,0.21 28.2286885,0.39 27.5050522,1.30454545 C26.113234,3.06454545 26.7977794,5.73454545 27.2405067,7.68090909 C27.8059613,10.17 27.9468703,12.8263636 30.9923249,10.8472727 C32.4295976,9.91181818 35.2468703,6.24454545 36.7514158,8.45454545 C37.4123249,9.42454545 37.0268703,11.1490909 37.273234,12.2509091 C37.5205067,13.3563636 37.8786885,14.4590909 38.1405067,15.5681818 C38.6795976,17.8436364 39.3005067,18.0518182 41.393234,16.9718182 C42.3305067,16.4881818 43.9250522,16.0018182 44.6568703,15.2109091 C45.4941431,14.3063636 45.2214158,14.2236364 45.0368703,12.9436364 C44.8568703,11.6963636 44.7668703,10.5336364 45.4605067,9.41727273 C45.9795976,8.58272727 47.3341431,8.03454545 47.7359613,7.20090909 C48.4705067,5.67909091 45.9914158,4.72090909 45.3986885,3.22636364 C44.6868703,1.43 45.5877794,-1.48909091 46.4005067,-3.16909091 C46.9377794,-4.28272727 47.4768703,-4.59727273 48.4141431,-5.27818182 C49.5277794,-6.08909091 50.063234,-7.04272727 50.8605067,-8.14818182 C51.6086885,-9.18636364 55.473234,-13.5881818 56.0050522,-10.8545455 C56.5223249,-8.19727273 54.2323249,-5.95909091 52.8723249,-4.04818182 C51.0523249,-1.49 51.6677794,1.30454545 53.3414158,3.81727273 C54.4805067,5.52727273 54.7541431,5.17363636 56.6177794,5.13454545 C57.0468703,5.12545455 57.2723249,4.89909091 57.7368703,5.03454545 C58.2068703,5.17181818 58.0286885,5.77545455 58.7023249,5.85454545 C58.243234,5.80090909 56.1568703,8.32363636 55.5868703,8.73818182 C54.0505067,9.85636364 52.6150522,10.4645455 51.8468703,12.33 C51.4341431,13.3336364 51.4041431,14.5772727 50.8141431,15.5118182 C50.2814158,16.3536364 49.6695976,16.3690909 48.843234,17.0490909 C47.8105067,17.8981818 47.5305067,19.3 46.5114158,20.1318182 C44.9395976,21.4127273 43.4950522,20.3027273 41.8550522,20.5963636 C40.3741431,20.8609091 40.5405067,21.5863636 38.8905067,20.8754545 C37.4305067,20.2463636 37.0641431,19.8081818 35.2986885,20.2045455 C33.7995976,20.5409091 33.3259613,21.2909091 32.9686885,19.6354545 C32.6214158,18.0254545 33.3977794,17.2227273 34.1614158,16.0781818 C36.0150522,13.3009091 31.1268703,11.8872727 29.6905067,13.7972727 C29.1914158,14.4618182 29.2405067,16.8254545 29.5114158,17.6063636 C29.7595976,18.3236364 30.2950522,18.6090909 30.3341431,19.4163636 C30.3750522,20.2727273 29.8005067,21.0690909 29.3905067,21.7590909 C28.6314158,23.0381818 27.9014158,23.6909091 26.7323249,24.4772727 C26.1523249,24.8663636 25.5077794,25.2727273 25.0677794,25.8345455 C24.6377794,26.3845455 24.5605067,27.3972727 24.1295976,27.8463636 C23.6386885,28.3563636 23.0141431,28.1718182 22.4523249,28.5090909 C21.8577794,28.8645455 21.4450522,29.5390909 21.0577794,30.1118182 C20.2414158,31.3190909 20.6995976,31.5136364 19.4723249,31.9236364 C18.1941431,32.3509091 16.8641431,31.6272727 15.5968703,31.8045455 C15.2986885,31.8463636 13.303234,32.5563636 14.2195976,32.9845455 C14.2359613,32.9918182 11.9541431,33.1736364 11.7714158,33.1690909 C11.5123249,33.1618182 10.5086885,33.1763636 10.413234,33.24 C8.18596125,34.7209091 10.8923249,36.3636364 12.0095976,36.9690909 C14.893234,38.5336364 16.0386885,42.7054545 13.5759613,45.3727273 C12.7405067,46.2781818 10.6668703,46.1936364 9.43050671,46.2281818 C7.6114158,46.2790909 5.22232489,45.5745455 3.51050671,46.2454545 C3.60232489,46.21 1.7114158,47.4945455 1.78596125,47.3072727 C1.55505216,47.8854545 2.32596125,48.6381818 2.30687034,49.2409091 C2.24505216,51.2563636 -0.408584204,52.6318182 0.0541430688,54.9618182 C0.231415796,55.8527273 0.984143069,56.5536364 1.24505216,57.43 C1.59959761,58.6254545 1.06868852,59.2845455 2.56505216,59.8045455 C3.02777943,59.9654545 3.45505216,59.8336364 3.91414307,59.9118182 C4.75777943,60.0545455 4.97414307,60.4736364 5.64959761,60.7218182 C6.46868852,61.0218182 6.96596125,61.1445455 7.90050671,61.06 C9.76868852,60.8918182 11.7323249,60.6881818 13.4359613,59.9572727 C14.2441431,59.61 15.7368703,59.2818182 16.2668703,58.4718182 C16.9314158,57.4563636 16.2695976,56.3218182 16.3995976,55.2145455 C16.6114158,53.4181818 18.4459613,51.9581818 20.0541431,51.2854545 C20.5705067,51.07 21.1695976,51.0690909 21.6741431,50.7863636 C23.1623249,49.9509091 22.423234,49.4163636 22.953234,48.1336364 C23.7305067,46.2554545 25.2423249,47.4254545 26.6968703,46.9036364 C28.6614158,46.1990909 30.4805067,44.1490909 32.8186885,45.4009091 C34.3286885,46.21 35.1941431,48.3954545 36.2877794,49.6672727 C37.7968703,51.4209091 39.7323249,51.9745455 41.6323249,53.2163636 C42.3977794,53.7163636 43.183234,54.2081818 43.4595976,55.1372727 C43.6905067,55.9145455 43.0195976,58.1354545 44.3250522,58.2954545 C45.2250522,58.4045455 46.0759613,52.7409091 47.6650522,55.6018182 C47.3605067,55.0527273 48.4905067,53.2181818 47.9414158,52.1645455 C47.2686885,50.8718182 46.0186885,51.1690909 44.8150522,50.6009091 C42.7323249,49.6172727 40.6095976,46.9945455 39.1914158,45.2163636 C38.3277794,44.1345455 37.4214158,43.5863636 37.6995976,42.1627273 C37.9941431,40.65 39.0314158,40.1254545 40.433234,40.4181818 C44.1559613,41.1972727 44.8650522,45.8 46.6468703,48.5309091 C47.393234,49.6736364 47.5714158,49.4927273 48.7668703,49.8690909 C50.9814158,50.5672727 50.2914158,51.7145455 50.8205067,53.6745455 C51.3914158,55.7890909 52.8923249,59.32 55.0386885,59.9809091 C56.1114158,60.3118182 57.3641431,60.0045455 57.7550522,58.5627273 C58.1923249,56.9481818 56.3195976,55.2418182 56.6123249,53.7127273 C57.1050522,51.1409091 60.483234,52.6045455 62.1405067,52.3190909 C65.053234,51.8163636 65.0705067,46.4163636 65.6095976,44.08 C66.0368703,42.2263636 66.5886885,41.3572727 68.2859613,40.3981818 C69.0050522,39.9918182 69.8814158,39.5918182 70.7195976,39.4954545 C71.1968703,39.4409091 72.2205067,39.8681818 72.1350522,39.8763636 C71.9823249,39.89 72.7250522,41.1736364 72.8677794,41.5672727 C72.8568703,41.5372727 73.5323249,43.1054545 73.0405067,42.6136364 C73.7523249,43.3263636 75.8286885,42.6690909 76.3295976,42.01 C77.1177794,40.9736364 76.3295976,40.1 76.6068703,38.9618182 C77.0968703,36.9554545 78.9195976,37.7845455 80.1959613,38.4736364" id="Fill-1" fill="#F2FAF2" mask="url(#mask-2)"></path>
                    </g>
                </g>
                <g id="Stroke-3-Clipped">
                    <g>
                        <mask id="mask-4" fill="white">
                            <path d="M0,54.8121622 C4.11883376,57.0392717 8.83457291,58.3036364 13.8455976,58.3036364 C29.9455976,58.3036364 42.9974158,45.2518182 42.9974158,29.1518182 C42.9974158,13.0518182 29.9455976,0 13.8455976,0 C8.83457291,0 4.11883376,1.26436467 0,3.49147417 L1.67946465e-13,54.8121622 L0,54.8121622 Z" id="path-3"></path>
                        </mask>
                        <g id="path-3"></g>
                        <path d="M51.8905067,-27 C49.1305067,-25.46 46.4314158,-23.7090909 44.0105067,-21.6745455 C42.5705067,-20.4636364 41.0550522,-19.0963636 40.2214158,-17.3763636 C39.043234,-14.9454545 39.0550522,-12.1309091 38.2205067,-9.59636364 C37.3368703,-6.91090909 35.1968703,-5.11636364 33.2941431,-3.11727273 C32.3750522,-2.15090909 31.4359613,-1.10636364 30.2977794,-0.390909091 C29.3414158,0.21 28.2286885,0.39 27.5050522,1.30454545 C26.113234,3.06454545 26.7977794,5.73454545 27.2405067,7.68090909 C27.8059613,10.17 27.9468703,12.8263636 30.9923249,10.8472727 C32.4295976,9.91181818 35.2468703,6.24454545 36.7514158,8.45454545 C37.4123249,9.42454545 37.0268703,11.1490909 37.273234,12.2509091 C37.5205067,13.3563636 37.8786885,14.4590909 38.1405067,15.5681818 C38.6795976,17.8436364 39.3005067,18.0518182 41.393234,16.9718182 C42.3305067,16.4881818 43.9250522,16.0018182 44.6568703,15.2109091 C45.4941431,14.3063636 45.2214158,14.2236364 45.0368703,12.9436364 C44.8568703,11.6963636 44.7668703,10.5336364 45.4605067,9.41727273 C45.9795976,8.58272727 47.3341431,8.03454545 47.7359613,7.20090909 C48.4705067,5.67909091 45.9914158,4.72090909 45.3986885,3.22636364 C44.6868703,1.43 45.5877794,-1.48909091 46.4005067,-3.16909091 C46.9377794,-4.28272727 47.4768703,-4.59727273 48.4141431,-5.27818182 C49.5277794,-6.08909091 50.063234,-7.04272727 50.8605067,-8.14818182 C51.6086885,-9.18636364 55.473234,-13.5881818 56.0050522,-10.8545455 C56.5223249,-8.19727273 54.2323249,-5.95909091 52.8723249,-4.04818182 C51.0523249,-1.49 51.6677794,1.30454545 53.3414158,3.81727273 C54.4805067,5.52727273 54.7541431,5.17363636 56.6177794,5.13454545 C57.0468703,5.12545455 57.2723249,4.89909091 57.7368703,5.03454545 C58.2068703,5.17181818 58.0286885,5.77545455 58.7023249,5.85454545 C58.243234,5.80090909 56.1568703,8.32363636 55.5868703,8.73818182 C54.0505067,9.85636364 52.6150522,10.4645455 51.8468703,12.33 C51.4341431,13.3336364 51.4041431,14.5772727 50.8141431,15.5118182 C50.2814158,16.3536364 49.6695976,16.3690909 48.843234,17.0490909 C47.8105067,17.8981818 47.5305067,19.3 46.5114158,20.1318182 C44.9395976,21.4127273 43.4950522,20.3027273 41.8550522,20.5963636 C40.3741431,20.8609091 40.5405067,21.5863636 38.8905067,20.8754545 C37.4305067,20.2463636 37.0641431,19.8081818 35.2986885,20.2045455 C33.7995976,20.5409091 33.3259613,21.2909091 32.9686885,19.6354545 C32.6214158,18.0254545 33.3977794,17.2227273 34.1614158,16.0781818 C36.0150522,13.3009091 31.1268703,11.8872727 29.6905067,13.7972727 C29.1914158,14.4618182 29.2405067,16.8254545 29.5114158,17.6063636 C29.7595976,18.3236364 30.2950522,18.6090909 30.3341431,19.4163636 C30.3750522,20.2727273 29.8005067,21.0690909 29.3905067,21.7590909 C28.6314158,23.0381818 27.9014158,23.6909091 26.7323249,24.4772727 C26.1523249,24.8663636 25.5077794,25.2727273 25.0677794,25.8345455 C24.6377794,26.3845455 24.5605067,27.3972727 24.1295976,27.8463636 C23.6386885,28.3563636 23.0141431,28.1718182 22.4523249,28.5090909 C21.8577794,28.8645455 21.4450522,29.5390909 21.0577794,30.1118182 C20.2414158,31.3190909 20.6995976,31.5136364 19.4723249,31.9236364 C18.1941431,32.3509091 16.8641431,31.6272727 15.5968703,31.8045455 C15.2986885,31.8463636 13.303234,32.5563636 14.2195976,32.9845455 C14.2359613,32.9918182 11.9541431,33.1736364 11.7714158,33.1690909 C11.5123249,33.1618182 10.5086885,33.1763636 10.413234,33.24 C8.18596125,34.7209091 10.8923249,36.3636364 12.0095976,36.9690909 C14.893234,38.5336364 16.0386885,42.7054545 13.5759613,45.3727273 C12.7405067,46.2781818 10.6668703,46.1936364 9.43050671,46.2281818 C8.89939912,46.2430454 4.81887644,46.3550002 3.91414307,46.9036364 C3.53791013,47.1317865 2.57543182,47.7431489 2.30687034,48.5309091 C2.03830886,49.3186693 2.31476634,50.9916211 2.30687034,51.2409091 C2.24505216,53.2563636 -0.408584204,52.6318182 0.0541430688,54.9618182 C0.231415796,55.8527273 0.984143069,56.5536364 1.24505216,57.43 C1.59959761,58.6254545 1.06868852,59.2845455 2.56505216,59.8045455 C3.02777943,59.9654545 3.45505216,59.8336364 3.91414307,59.9118182 C4.75777943,60.0545455 4.97414307,60.4736364 5.64959761,60.7218182 C6.46868852,61.0218182 6.96596125,61.1445455 7.90050671,61.06 C9.76868852,60.8918182 11.7323249,60.6881818 13.4359613,59.9572727 C14.2441431,59.61 15.7368703,59.2818182 16.2668703,58.4718182 C16.9314158,57.4563636 16.2695976,56.3218182 16.3995976,55.2145455 C16.6114158,53.4181818 18.4459613,51.9581818 20.0541431,51.2854545 C20.5705067,51.07 21.1695976,51.0690909 21.6741431,50.7863636 C23.1623249,49.9509091 22.423234,49.4163636 22.953234,48.1336364 C23.7305067,46.2554545 25.2423249,47.4254545 26.6968703,46.9036364 C28.6614158,46.1990909 30.4805067,44.1490909 32.8186885,45.4009091 C34.3286885,46.21 35.1941431,48.3954545 36.2877794,49.6672727 C37.7968703,51.4209091 39.7323249,51.9745455 41.6323249,53.2163636 C42.3977794,53.7163636 43.183234,54.2081818 43.4595976,55.1372727 C43.6905067,55.9145455 43.0195976,58.1354545 44.3250522,58.2954545 C45.2250522,58.4045455 46.0759613,52.7409091 47.6650522,55.6018182 C47.3605067,55.0527273 48.4905067,53.2181818 47.9414158,52.1645455 C47.2686885,50.8718182 46.0186885,51.1690909 44.8150522,50.6009091 C42.7323249,49.6172727 40.6095976,46.9945455 39.1914158,45.2163636 C38.3277794,44.1345455 37.4214158,43.5863636 37.6995976,42.1627273 C37.9941431,40.65 39.0314158,40.1254545 40.433234,40.4181818 C44.1559613,41.1972727 44.8650522,45.8 46.6468703,48.5309091 C47.393234,49.6736364 47.5714158,49.4927273 48.7668703,49.8690909 C50.9814158,50.5672727 50.2914158,51.7145455 50.8205067,53.6745455 C51.3914158,55.7890909 52.8923249,59.32 55.0386885,59.9809091 C56.1114158,60.3118182 57.3641431,60.0045455 57.7550522,58.5627273 C58.1923249,56.9481818 56.3195976,55.2418182 56.6123249,53.7127273 C57.1050522,51.1409091 60.483234,52.6045455 62.1405067,52.3190909 C65.053234,51.8163636 65.0705067,46.4163636 65.6095976,44.08 C66.0368703,42.2263636 66.5886885,41.3572727 68.2859613,40.3981818 C69.0050522,39.9918182 69.8814158,39.5918182 70.7195976,39.4954545 C71.1968703,39.4409091 72.2205067,39.8681818 72.1350522,39.8763636 C71.9823249,39.89 72.7250522,41.1736364 72.8677794,41.5672727 C72.8568703,41.5372727 73.5323249,43.1054545 73.0405067,42.6136364 C73.7523249,43.3263636 75.8286885,42.6690909 76.3295976,42.01 C77.1177794,40.9736364 76.3295976,40.1 76.6068703,38.9618182 C77.0968703,36.9554545 78.9195976,37.7845455 80.1959613,38.4736364" id="Stroke-3" stroke="#5092DA" stroke-width="1.5" mask="url(#mask-4)"></path>
                    </g>
                </g>
            </g>
            <path d="M29.6494893,10.4881077 C29.3022165,10.8753804 28.5303984,11.5299259 28.4558529,12.0344713 C28.2985802,13.091744 29.0922165,12.2999259 29.966762,12.5581077 C30.4322165,12.6953804 31.8485802,13.4981077 31.8003984,14.071744 C31.7585802,14.5799259 30.3194893,15.3771986 30.0731256,16.0162895 C29.6249438,17.1771986 30.1231256,16.2181077 30.9922165,16.8935622 C31.3313075,17.1571986 31.4613075,18.0471986 31.5694893,18.5062895 C31.8140347,19.5490168 31.5431256,20.5944713 31.8522165,21.5444713 C32.2076711,22.6381077 33.2803984,23.1271986 34.146762,23.6644713 C34.8685802,24.111744 35.0740347,24.0026531 35.3549438,24.871744 C35.8422165,26.3762895 34.7631256,25.9244713 34.1749438,26.8744713 C33.8340347,27.4253804 34.1894893,27.8635622 33.8085802,28.2671986 C33.4803984,28.6144713 31.4903984,28.9326531 31.0049438,29.0853804 C30.0403984,29.3908349 29.0931256,29.3808349 28.1385802,29.6344713 C27.2540347,29.8690168 26.6249438,30.3926531 25.6794893,30.4799259 C22.0494893,30.8181077 27.586762,28.1735622 28.1703984,27.691744 C27.0185802,26.9944713 26.1340347,26.9671986 24.8194893,26.9671986 C25.1613074,25.2881077 26.6722165,26.2644713 27.3213075,25.2835622 C27.6731256,24.7508349 27.186762,24.6226531 27.2313075,24.151744 C27.3258529,23.1299259 26.9058529,24.2499259 27.4322165,23.2681077 C28.3085802,21.6326531 29.6922165,20.3381077 27.9394893,18.7408349 C27.166762,18.0362895 26.0403984,17.8435622 25.5231256,17.1381077 C25.2122165,16.7135622 24.9803984,15.5044713 24.8740347,14.9981077 C24.7149438,14.2362895 24.6558529,12.5171986 25.0576711,11.8462895 C25.8403984,10.5399259 28.3531256,9.90901676 29.6494893,10.4881077" id="Fill-5" fill="#F2FAF2"></path>
            <path d="M29.6494893,10.4881077 C29.3022165,10.8753804 28.5303984,11.5299259 28.4558529,12.0344713 C28.2985802,13.091744 29.0922165,12.2999259 29.966762,12.5581077 C30.4322165,12.6953804 31.8485802,13.4981077 31.8003984,14.071744 C31.7585802,14.5799259 30.3194893,15.3771986 30.0731256,16.0162895 C29.6249438,17.1771986 30.1231256,16.2181077 30.9922165,16.8935622 C31.3313075,17.1571986 31.4613075,18.0471986 31.5694893,18.5062895 C31.8140347,19.5490168 31.5431256,20.5944713 31.8522165,21.5444713 C32.2076711,22.6381077 33.2803984,23.1271986 34.146762,23.6644713 C34.8685802,24.111744 35.0740347,24.0026531 35.3549438,24.871744 C35.8422165,26.3762895 34.7631256,25.9244713 34.1749438,26.8744713 C33.8340347,27.4253804 34.1894893,27.8635622 33.8085802,28.2671986 C33.4803984,28.6144713 31.4903984,28.9326531 31.0049438,29.0853804 C30.0403984,29.3908349 29.0931256,29.3808349 28.1385802,29.6344713 C27.2540347,29.8690168 26.6249438,30.3926531 25.6794893,30.4799259 C22.0494893,30.8181077 27.586762,28.1735622 28.1703984,27.691744 C27.0185802,26.9944713 26.1340347,26.9671986 24.8194893,26.9671986 C25.1613074,25.2881077 26.6722165,26.2644713 27.3213075,25.2835622 C27.6731256,24.7508349 27.186762,24.6226531 27.2313075,24.151744 C27.3258529,23.1299259 26.9058529,24.2499259 27.4322165,23.2681077 C28.3085802,21.6326531 29.6922165,20.3381077 27.9394893,18.7408349 C27.166762,18.0362895 26.0403984,17.8435622 25.5231256,17.1381077 C25.2122165,16.7135622 24.9803984,15.5044713 24.8740347,14.9981077 C24.7149438,14.2362895 24.6558529,12.5171986 25.0576711,11.8462895 C25.8403984,10.5399259 28.3531256,9.90901676 29.6494893,10.4881077 Z" id="Stroke-7" stroke="#5092DA" stroke-width="1.5"></path>
            <path d="M19.6067924,27.8922962 C20.7622469,26.9441144 21.8495196,26.7550235 23.0995196,26.1377508 C24.8722469,25.2622962 24.4586106,24.2159326 24.3449742,22.6432053 C24.2613378,21.5050235 25.3440651,20.8895689 25.2077015,20.0222962 C24.9913378,18.6422962 22.5358833,19.4568417 21.8695196,20.1632053 C21.683156,20.360478 21.9377015,20.8350235 21.7622469,21.0522962 C21.5540651,21.3113871 20.8858833,21.7122962 20.5595196,21.8559326 C19.4313378,22.3550235 19.2340651,21.9359326 19.6640651,23.3950235 C20.1122469,24.9150235 20.2222469,24.560478 19.0413378,25.8141144 C17.9613378,26.9613871 18.503156,27.0641144 19.6067924,27.8922962" id="Fill-9" fill="#F2FAF2"></path>
            <path d="M19.6067924,27.8922962 C20.7622469,26.9441144 21.8495196,26.7550235 23.0995196,26.1377508 C24.8722469,25.2622962 24.4586106,24.2159326 24.3449742,22.6432053 C24.2613378,21.5050235 25.3440651,20.8895689 25.2077015,20.0222962 C24.9913378,18.6422962 22.5358833,19.4568417 21.8695196,20.1632053 C21.683156,20.360478 21.9377015,20.8350235 21.7622469,21.0522962 C21.5540651,21.3113871 20.8858833,21.7122962 20.5595196,21.8559326 C19.4313378,22.3550235 19.2340651,21.9359326 19.6640651,23.3950235 C20.1122469,24.9150235 20.2222469,24.560478 19.0413378,25.8141144 C17.9613378,26.9613871 18.503156,27.0641144 19.6067924,27.8922962 Z" id="Stroke-11" stroke="#5092DA" stroke-width="1.5"></path>
            <g id="Group-18" transform="translate(0.000000, 0.272273)" stroke="#5092DA">
                <path d="M58.3036364,29.1518182 C58.3036364,45.2518182 45.2518182,58.3036364 29.1518182,58.3036364 C13.0518182,58.3036364 0,45.2518182 0,29.1518182 C0,13.0518182 13.0518182,0 29.1518182,0 C45.2518182,0 58.3036364,13.0518182 58.3036364,29.1518182 Z" id="Stroke-14" stroke-width="1.5"></path>
                <path d="M58.3036364,29.1518182 C58.3036364,45.2518182 45.2518182,58.3036364 29.1518182,58.3036364 C13.0518182,58.3036364 0,45.2518182 0,29.1518182 C0,13.0518182 13.0518182,0 29.1518182,0 C45.2518182,0 58.3036364,13.0518182 58.3036364,29.1518182 Z" id="Stroke-16" stroke-width="1.3"></path>
            </g>
        </g>
    </g>
</svg>
