<svg width="56px" height="55px" viewBox="0 0 56 55" version="1.1" xmlns="http://www.w3.org/2000/svg">
    <title>Group</title>
    <desc>Created with Sketch.</desc>
    <defs></defs>
    <g id="Page-1" stroke="none" stroke-width="1" fill="none" fill-rule="evenodd">
        <g id="Group" transform="translate(2.000000, 1.000000)" stroke="#4D90DD" stroke-width="1.89999998" fill="#FEF0EF">
            <path d="M42.3935417,52.5410417 C46.2229167,49.7589583 52.70375,43.8808333 52.70375,39.4854167 C52.70375,35.921875 50.1072917,33.7929167 47.5979167,33.7929167 C44.8066667,33.7929167 43.7685417,35.7179167 42.39125,37.9935417 C41.0116667,35.7179167 39.9735417,33.7929167 37.1845833,33.7929167 C34.6752083,33.7929167 32.07875,35.9241667 32.07875,39.4854167 C32.07875,43.8808333 38.5595833,49.7589583 42.3935417,52.5410417 L42.3935417,52.5410417 L42.3935417,52.5410417 Z" id="Shape"></path>
            <path d="M32.0054167,29.2920833 C30.2225,28.7008333 27.5,28.0683333 26.3541667,27.335 L26.3541667,21.6058333 C26.3541667,21.6058333 29.7916667,20.1872917 29.7916667,14.7308333 C30.9375,14.7308333 30.9375,9.98708333 29.7916667,9.98708333 C29.7916667,9.44854167 31.4302083,6.30208333 30.67625,3.2725 C29.59,-1.09083333 16.9972917,-1.09083333 15.9110417,3.2725 C10.484375,2.18395833 13.75,9.41645833 13.75,10.1475 C11.4583333,10.1475 11.4583333,14.7308333 13.75,14.7308333 C13.75,20.1872917 17.1875,21.6058333 17.1875,21.6058333 L17.1875,27.335 C10.3125,29.7572917 2.976875,31.3591667 2.03041667,34.21 C0.944166667,37.4870833 0,43.3766667 0,43.3766667 L25.2083333,43.3766667" id="Shape"></path>
        </g>
    </g>
</svg>
