<svg xmlns="http://www.w3.org/2000/svg" width="59.27" height="56.61" viewBox="0 0 59.27 56.61"><title>FutureProof</title><path d="M47.52,53H58.27v-6.4L50.59,36.41V8.27a6.4,6.4,0,0,0-12.79,0V36.41L30.12,46.65V53H40.87" style="fill:#fefaea;stroke:#5092da;stroke-miterlimit:10;stroke-width:2px"/><polygon points="42.91 42.81 45.47 42.81 48.03 55.61 40.35 55.61 42.91 42.81" style="fill:#fefaea;stroke:#5092da;stroke-miterlimit:10;stroke-width:2px"/><line x1="37.79" y1="9.54" x2="50.59" y2="9.54" style="fill:#fefaea;stroke:#5092da;stroke-miterlimit:10;stroke-width:2px"/><line x1="37.79" y1="24.66" x2="50.59" y2="24.66" style="fill:#fefaea;stroke:#5092da;stroke-miterlimit:10;stroke-width:2px"/><polygon points="3.47 1 14.76 1 14.76 46.33 16.89 53.48 1.34 53.48 3.47 46.33 3.47 1" style="fill:#fefaea;stroke:#5092da;stroke-miterlimit:10;stroke-width:2px"/><line x1="14.76" y1="17.22" x2="29.06" y2="17.22" style="fill:#fefaea;stroke:#5092da;stroke-miterlimit:10;stroke-width:2px"/><polyline points="33.96 9.54 29.05 9.54 29.05 24.9 33.96 24.9" style="fill:none;stroke:#5092da;stroke-miterlimit:10;stroke-width:2px"/><line x1="8.58" y1="11.98" x2="8.58" y2="43.9" style="fill:none;stroke:#5092da;stroke-miterlimit:10;stroke-width:2px"/></svg>