<svg width="60px" height="58px" viewBox="0 0 60 58" version="1.1" xmlns="http://www.w3.org/2000/svg">
    <defs></defs>
    <g id="Page-1" stroke="none" stroke-width="1" fill="none" fill-rule="evenodd">
        <g id="Group">
            <path d="M48,19.9990364 L54,19.9990364 L54,55.9990364 L48,55.9990364 L48,19.9990364 Z" id="Path" fill="#FEF0EF"></path>
            <path d="M34,29.9990364 L40,29.9990364 L40,55.9990364 L34,55.9990364 L34,29.9990364 Z" id="Path" fill="#FEF0EF"></path>
            <path d="M20,40.0000364 L26,40.0000364 L26,55.9990364 L20,55.9990364 L20,40.0000364 Z" id="Path" fill="#FEF0EF"></path>
            <path d="M6,49.9990364 L12,49.9990364 L12,55.9990364 L6,55.9990364 L6,49.9990364 Z" id="Path" fill="#FEF0EF"></path>
            <path d="M7.65,32.8420364 C7.84,32.8420364 8.03,32.7880364 8.2,32.6760364 L51.77,4.00503635 L51.01,10.8890364 C50.94,11.4390364 51.34,11.9320364 51.89,11.9940364 C51.93,11.9970364 51.96,11.9990364 52,11.9990364 C52.5,11.9990364 52.94,11.6210364 52.99,11.1090364 L53.99,2.10903635 C54,2.06303635 53.98,2.01903635 53.98,1.97103635 C53.98,1.90203635 53.98,1.83603635 53.96,1.77003635 C53.95,1.69803635 53.92,1.63703635 53.88,1.57303635 C53.86,1.53203635 53.86,1.48803635 53.83,1.44903635 C53.83,1.43603635 53.81,1.43003635 53.8,1.41703635 C53.76,1.36003635 53.71,1.31603635 53.66,1.27003635 C53.61,1.22903635 53.57,1.18403635 53.52,1.15203635 C53.47,1.12103635 53.41,1.10603635 53.35,1.08403635 C53.29,1.05903635 53.22,1.03003635 53.15,1.02003635 C53.14,1.01803635 53.13,1.00803635 53.11,1.00503635 L44.11,0.00603635306 C43.57,-0.0539636469 43.07,0.340036353 43.01,0.889036353 C42.94,1.43803635 43.34,1.93203635 43.89,1.99303635 L50.14,2.68803635 L7.1,31.0050364 C6.64,31.3090364 6.51,31.9300364 6.82,32.3910364 C7.01,32.6840364 7.33,32.8420364 7.65,32.8420364" id="Fill-2710" fill="#5092DA"></path>
            <path d="M48,19.9990364 L54,19.9990364 L54,55.9990364 L48,55.9990364 L48,19.9990364 Z M34,29.9990364 L40,29.9990364 L40,55.9990364 L34,55.9990364 L34,29.9990364 Z M20,40.0000364 L26,40.0000364 L26,55.9990364 L20,55.9990364 L20,40.0000364 Z M6,49.9990364 L12,49.9990364 L12,55.9990364 L6,55.9990364 L6,49.9990364 Z M59,55.9990364 L56,55.9990364 L56,19.0000364 C56,18.4470364 55.55,17.9990364 55,17.9990364 L47,17.9990364 C46.45,17.9990364 46,18.4470364 46,19.0000364 L46,55.9990364 L42,55.9990364 L42,28.9990364 C42,28.4470364 41.55,28.0000364 41,28.0000364 L33,28.0000364 C32.45,28.0000364 32,28.4470364 32,28.9990364 L32,55.9990364 L28,55.9990364 L28,38.9990364 C28,38.4470364 27.55,37.9990364 27,37.9990364 L19,37.9990364 C18.45,37.9990364 18,38.4470364 18,38.9990364 L18,55.9990364 L14,55.9990364 L14,49.0000364 C14,48.4470364 13.55,47.9990364 13,47.9990364 L5,47.9990364 C4.45,47.9990364 4,48.4470364 4,49.0000364 L4,55.9990364 L1,55.9990364 C0.45,55.9990364 0,56.4470364 0,56.9990364 C0,57.5510364 0.45,58.0000364 1,58.0000364 L59,58.0000364 C59.55,58.0000364 60,57.5510364 60,56.9990364 C60,56.4470364 59.55,55.9990364 59,55.9990364 L59,55.9990364 Z" id="Fill-2711" fill="#5092DA"></path>
        </g>
    </g>
</svg>
