<svg width="60px" height="46px" viewBox="0 0 60 46" version="1.1" xmlns="http://www.w3.org/2000/svg">
    <defs></defs>
    <g id="Page-1" stroke="none" stroke-width="1" fill="none" fill-rule="evenodd">
        <g id="Desktop-Copy-5" transform="translate(-370.000000, -3122.000000)">
            <g id="api-/-pro" transform="translate(128.000000, 3033.000000)">
                <rect id="Rectangle-14" x="0" y="0" width="1024" height="478"></rect>
                <g id="Group" transform="translate(42.000000, 89.000000)">
                    <g id="Group-7" transform="translate(200.000000, 0.000000)">
                        <path d="M54,44 L6,44 C3.79,44 2,42.2 2,40 L2,12 L58,12 L58,40 C58,42.2 56.21,44 54,44 L54,44 Z" id="Path" fill="#F2FAF2"></path>
                        <path d="M54,44 L6,44 C3.79,44 2,42.2 2,40 L2,12 L58,12 L58,40 C58,42.2 56.21,44 54,44 L54,44 Z M6,2 L54,2 C56.21,2 58,3.79 58,6 L58,10 L2,10 L2,6 C2,3.79 3.79,2 6,2 L6,2 Z M54,0 L6,0 C2.69,0 0,2.69 0,6 L0,40 C0,43.311 2.69,46 6,46 L54,46 C57.31,46 60,43.311 60,40 L60,6 C60,2.69 57.31,0 54,0 L54,0 Z" id="Fill-3798" fill="#5092DA"></path>
                        <path d="M8,8 C9.1,8 10,7.101 10,6 C10,4.9 9.1,4 8,4 C6.9,4 6,4.9 6,6 C6,7.101 6.9,8 8,8" id="Fill-3799" fill="#5092DA"></path>
                        <path d="M14,8 C15.1,8 16,7.101 16,6 C16,4.9 15.1,4 14,4 C12.9,4 12,4.9 12,6 C12,7.101 12.9,8 14,8" id="Fill-3800" fill="#5092DA"></path>
                        <path d="M20,8 C21.1,8 22,7.101 22,6 C22,4.9 21.1,4 20,4 C18.9,4 18,4.9 18,6 C18,7.101 18.9,8 20,8" id="Fill-3801" fill="#5092DA"></path>
                        <path d="M13.71,20.29 C13.32,19.9 12.68,19.9 12.29,20.29 C11.9,20.681 11.9,21.311 12.29,21.71 L17.59,27 L12.29,32.29 C11.9,32.681 11.9,33.311 12.29,33.71 C12.49,33.9 12.74,34 13,34 C13.26,34 13.51,33.9 13.71,33.71 L19.71,27.71 C20.1,27.311 20.1,26.681 19.71,26.29 L13.71,20.29" id="Fill-3802" fill="#5092DA"></path>
                        <path d="M39,26 L27,26 C26.45,26 26,26.45 26,27 C26,27.55 26.45,28 27,28 L39,28 C39.55,28 40,27.55 40,27 C40,26.45 39.55,26 39,26" id="Fill-3803" fill="#5092DA"></path>
                    </g>
                </g>
            </g>
        </g>
    </g>
</svg>
