<svg xmlns="http://www.w3.org/2000/svg" width="53.05" height="62" viewBox="0 0 53.05 62"><title>LessAdmin2</title><path d="M52,35.48A26.06,26.06,0,0,1,26.08,61,25,25,0,0,1,1,35.48C1.25,21.39,11.88,10,26,10S52.29,21.39,52,35.48Z" style="fill:#fff7f6;stroke:#5092da;stroke-miterlimit:10;stroke-width:2px"/><line x1="23.54" y1="1" x2="28.64" y2="1" style="fill:none;stroke:#5092da;stroke-linecap:round;stroke-linejoin:round;stroke-width:2px"/><line x1="26.09" y1="1" x2="25.96" y2="8.65" style="fill:none;stroke:#5092da;stroke-linecap:round;stroke-linejoin:round;stroke-width:2px"/><line x1="46.38" y1="8.65" x2="50.14" y2="12.48" style="fill:none;stroke:#5092da;stroke-linecap:round;stroke-linejoin:round;stroke-width:2px"/><line x1="48.26" y1="10.57" x2="43.23" y2="16.5" style="fill:none;stroke:#5092da;stroke-linecap:round;stroke-linejoin:round;stroke-width:2px"/><line x1="12.96" y1="22.26" x2="14.9" y2="24.24" style="fill:none;stroke:#5092da;stroke-linecap:round;stroke-linejoin:round;stroke-width:2px"/><line x1="26.19" y1="52.88" x2="26.28" y2="47.78" style="fill:none;stroke:#5092da;stroke-linecap:round;stroke-linejoin:round;stroke-width:2px"/><line x1="25.74" y1="21.42" x2="25.82" y2="16.32" style="fill:none;stroke:#5092da;stroke-linecap:round;stroke-linejoin:round;stroke-width:2px"/><line x1="13.51" y1="47.78" x2="15.53" y2="45.8" style="fill:none;stroke:#5092da;stroke-linecap:round;stroke-linejoin:round;stroke-width:2px"/><line x1="44.36" y1="35.02" x2="39.26" y2="35.02" style="fill:none;stroke:#5092da;stroke-linecap:round;stroke-linejoin:round;stroke-width:2px"/><line x1="14.6" y1="35.02" x2="9.49" y2="35.02" style="fill:none;stroke:#5092da;stroke-linecap:round;stroke-linejoin:round;stroke-width:2px"/><line x1="39.04" y1="47.78" x2="37.09" y2="45.8" style="fill:none;stroke:#5092da;stroke-linecap:round;stroke-linejoin:round;stroke-width:2px"/><line x1="29.95" y1="31.62" x2="39.79" y2="21.22" style="fill:none;stroke:#5092da;stroke-linecap:round;stroke-linejoin:round;stroke-width:2px"/><path d="M27.34,36.48a1.74,1.74,0,0,1-1.74,1.71,1.67,1.67,0,0,1-1.68-1.71,1.74,1.74,0,0,1,1.74-1.71A1.67,1.67,0,0,1,27.34,36.48Z" style="fill:none;stroke:#5092da;stroke-linecap:round;stroke-linejoin:round;stroke-width:2px"/></svg>