<svg width="46px" height="60px" viewBox="0 0 46 60" version="1.1" xmlns="http://www.w3.org/2000/svg">
    <defs></defs>
    <g id="Page-1" stroke="none" stroke-width="1" fill="none" fill-rule="evenodd">
        <g id="Desktop-Copy-2" transform="translate(-756.000000, -738.000000)">
            <g id="1bn" transform="translate(128.000000, 585.000000)">
                <rect id="Rectangle-7" x="0" y="0" width="1024" height="381"></rect>
                <g id="Group-+-Fully-automated-+-Save-time,-stop-huma-+-Fill-2730-+-Fill-2731-+-Ultra-low-fees-+-Less-than-half-the-c-+-Fill-1659-+-Fill-1660-+-12,000+-merchants-+-Powering-payments-fo" transform="translate(42.000000, 152.000000)">
                    <g id="Fill-2730-+-Fill-2731-+-Ultra-low-fees-+-Less-than-half-the-c" transform="translate(320.000000, 0.000000)"></g>
                </g>
            </g>
            <g id="Group-2" transform="translate(756.000000, 738.000000)">
                <path d="M23,57.738 C19.54,55.029 2,40.449 2,22.999 C2,11.609 11.62,1.999 23,1.999 C34.38,1.999 44,11.609 44,22.999 C44,40.439 26.46,55.029 23,57.738 L23,57.738 Z" id="Path" fill="#F2FAF2"></path>
                <path d="M23,57.738 C19.54,55.029 2,40.449 2,22.999 C2,11.609 11.62,1.999 23,1.999 C34.38,1.999 44,11.609 44,22.999 C44,40.439 26.46,55.029 23,57.738 L23,57.738 Z M23,0 C10.53,0 0,10.529 0,22.999 C0,31.419 3.89,40.459 11.24,49.139 C16.75,55.659 22.18,59.639 22.41,59.809 C22.59,59.93 22.79,60 23,60 C23.21,60 23.41,59.93 23.59,59.809 C23.82,59.639 29.25,55.659 34.76,49.139 C42.11,40.459 46,31.419 46,22.999 C46,10.529 35.47,0 23,0 L23,0 Z" id="Fill-3023" fill="#5092DA"></path>
            </g>
            <path d="M779,772.999 C772.38,772.999 767,767.609 767,760.999 C767,754.379 772.38,748.999 779,748.999 C785.62,748.999 791,754.379 791,760.999 C791,767.609 785.62,772.999 779,772.999 L779,772.999 Z M779,747 C771.28,747 765,753.279 765,760.999 C765,768.719 771.28,774.999 779,774.999 C786.72,774.999 793,768.719 793,760.999 C793,753.279 786.72,747 779,747 L779,747 Z" id="Fill-3024" fill="#5092DA"></path>
        </g>
    </g>
</svg>
