<svg width="60px" height="60px" viewBox="0 0 60 60" version="1.1" xmlns="http://www.w3.org/2000/svg">
    <defs></defs>
    <g id="Page-1" stroke="none" stroke-width="1" fill="none" fill-rule="evenodd">
        <g id="Desktop-Copy-5" transform="translate(-849.000000, -3109.000000)">
            <g id="api-/-pro" transform="translate(128.000000, 3033.000000)">
                <rect id="Rectangle-14" x="0" y="0" width="1024" height="478"></rect>
                <g id="Group" transform="translate(522.000000, 76.000000)">
                    <path d="M201,2 L257,2 L257,58 L201,58 L201,2 Z" id="Path" fill="#FFF7E0"></path>
                    <g id="Group-6" transform="translate(199.000000, 0.000000)">
                        <path d="M2,2 L58,2 L58,58 L2,58 L2,2 Z M59,0 L1,0 C0.45,0 0,0.5 0,1 L0,59 C0,59.6 0.45,60 1,60 L59,60 C59.55,60 60,59.6 60,59 L60,1 C60,0.5 59.55,0 59,0 L59,0 Z" id="Fill-1011" fill="#5092DA"></path>
                        <path d="M40,28 L46,28 L46,30 L40,30 L40,28 Z M39,32 L42,32 L42,36.3 C42,36.9 42.45,37.3 43,37.3 C43.55,37.3 44,36.9 44,36.3 L44,32 L47,32 C47.55,32 48,31.6 48,31 L48,27 C48,26.5 47.55,26 47,26 L44,26 L44,8.6 C44,8.1 43.55,7.6 43,7.6 C42.45,7.6 42,8.1 42,8.6 L42,26 L39,26 C38.45,26 38,26.5 38,27 L38,31 C38,31.6 38.45,32 39,32 L39,32 Z" id="Fill-1012" fill="#5092DA"></path>
                        <path d="M28,16 L34,16 L34,18 L28,18 L28,16 Z M27,20 L30,20 L30,36.3 C30,36.9 30.45,37.3 31,37.3 C31.55,37.3 32,36.9 32,36.3 L32,20 L35,20 C35.55,20 36,19.6 36,19 L36,15 C36,14.5 35.55,14 35,14 L32,14 L32,8.6 C32,8.1 31.55,7.6 31,7.6 C30.45,7.6 30,8.1 30,8.6 L30,14 L27,14 C26.45,14 26,14.5 26,15 L26,19 C26,19.6 26.45,20 27,20 L27,20 Z" id="Fill-1013" fill="#5092DA"></path>
                        <path d="M14,24 L20,24 L20,26 L14,26 L14,24 Z M13,28 L16,28 L16,36.3 C16,36.9 16.45,37.3 17,37.3 C17.55,37.3 18,36.9 18,36.3 L18,28 L21,28 C21.55,28 22,27.6 22,27 L22,23 C22,22.5 21.55,22 21,22 L18,22 L18,8.6 C18,8.1 17.55,7.6 17,7.6 C16.45,7.6 16,8.1 16,8.6 L16,22 L13,22 C12.45,22 12,22.5 12,23 L12,27 C12,27.6 12.45,28 13,28 L13,28 Z" id="Fill-1014" fill="#5092DA"></path>
                        <path d="M43,44 C44.65,44 46,45.401 46,47 C46,48.701 44.65,50 43,50 C41.35,50 40,48.701 40,47 C40,45.401 41.35,44 43,44 L43,44 Z" id="Path" fill="#FFFFFF"></path>
                        <path d="M43,44 C44.65,44 46,45.401 46,47 C46,48.701 44.65,50 43,50 C41.35,50 40,48.701 40,47 C40,45.401 41.35,44 43,44 L43,44 Z M43,52 C45.76,52 48,49.8 48,47 C48,44.3 45.76,42 43,42 C40.24,42 38,44.3 38,47 C38,49.8 40.24,52 43,52 L43,52 Z" id="Fill-1015" fill="#5092DA"></path>
                        <path d="M31,44 C32.65,44 34,45.401 34,47 C34,48.701 32.65,50 31,50 C29.35,50 28,48.701 28,47 C28,45.401 29.35,44 31,44 L31,44 Z" id="Path" fill="#FFFFFF"></path>
                        <path d="M31,44 C32.65,44 34,45.401 34,47 C34,48.701 32.65,50 31,50 C29.35,50 28,48.701 28,47 C28,45.401 29.35,44 31,44 L31,44 Z M31,52 C33.76,52 36,49.8 36,47 C36,44.3 33.76,42 31,42 C28.24,42 26,44.3 26,47 C26,49.8 28.24,52 31,52 L31,52 Z" id="Fill-1016" fill="#5092DA"></path>
                        <path d="M17,44 C18.65,44 20,45.401 20,47 C20,48.701 18.65,50 17,50 C15.35,50 14,48.701 14,47 C14,45.401 15.35,44 17,44 L17,44 Z" id="Path" fill="#FFFFFF"></path>
                        <path d="M17,44 C18.65,44 20,45.401 20,47 C20,48.701 18.65,50 17,50 C15.35,50 14,48.701 14,47 C14,45.401 15.35,44 17,44 L17,44 Z M17,52 C19.76,52 22,49.8 22,47 C22,44.3 19.76,42 17,42 C14.24,42 12,44.3 12,47 C12,49.8 14.24,52 17,52 L17,52 Z" id="Fill-1017" fill="#5092DA"></path>
                    </g>
                </g>
            </g>
        </g>
    </g>
</svg>
