<svg xmlns="http://www.w3.org/2000/svg" width="55.4" height="58" viewBox="0 0 55.4 58"><title>PaymentFlows</title><rect x="21.34" y="33.91" width="18.66" height="6.82" style="fill:#f2f7fd"/><polygon points="0.74 2.77 0.74 56.77 18.75 56.77 18.75 50.77 7.75 50.77 7.75 22.77 16.75 22.77 16.75 10.77 19.75 10.77 19.75 2.77 0.74 2.77" style="fill:#f2f7fd"/><polygon points="54.95 2.77 43.74 2.77 43.74 13.77 37.74 13.77 37.74 25.77 33.74 25.77 33.74 56.77 54.02 56.77 54.95 2.77" style="fill:#f2f7fd"/><polyline points="44.23 2.59 54.4 2.59 54.4 56.7 34.05 56.7" style="fill:none;stroke:#5092da;stroke-linecap:round;stroke-linejoin:round;stroke-width:2px"/><polyline points="26.43 57 26.43 45.11 16.26 45.11 16.26 30.56 23.88 30.56 23.88 17.85 31.51 17.85 31.51 1" style="fill:none;stroke:#5092da;stroke-linecap:round;stroke-linejoin:round;stroke-width:2px"/><polyline points="25.75 6.76 31.51 1 37.19 6.76" style="fill:none;stroke:#5092da;stroke-linecap:round;stroke-linejoin:round;stroke-width:2px"/><line x1="8.63" y1="2.59" x2="8.63" y2="15.31" style="fill:none;stroke:#5092da;stroke-linecap:round;stroke-linejoin:round;stroke-width:2px"/><polyline points="1 22.93 16.26 22.93 16.26 12.76" style="fill:none;stroke:#5092da;stroke-linecap:round;stroke-linejoin:round;stroke-width:2px"/><polyline points="21.34 37.48 34.05 37.48 34.05 48.36" style="fill:none;stroke:#5092da;stroke-linecap:round;stroke-linejoin:round;stroke-width:2px"/><polyline points="8.63 30.56 8.63 50.9 18.8 50.9 18.8 56.7 1 56.7 1 2.59 18.8 2.59" style="fill:none;stroke:#5092da;stroke-linecap:round;stroke-linejoin:round;stroke-width:2px"/><polyline points="41.68 56.7 41.68 33.11 46.77 33.11" style="fill:none;stroke:#5092da;stroke-linecap:round;stroke-linejoin:round;stroke-width:2px"/><line x1="54.4" y1="48.36" x2="49.31" y2="48.36" style="fill:none;stroke:#5092da;stroke-linecap:round;stroke-linejoin:round;stroke-width:2px"/><line x1="54.4" y1="40.73" x2="49.31" y2="40.73" style="fill:none;stroke:#5092da;stroke-linecap:round;stroke-linejoin:round;stroke-width:2px"/><polyline points="54.4 25.48 31.51 25.48 31.51 30.56" style="fill:none;stroke:#5092da;stroke-linecap:round;stroke-linejoin:round;stroke-width:2px"/><polyline points="39.14 25.48 39.14 12.76 46.77 12.76 46.77 17.85" style="fill:none;stroke:#5092da;stroke-linecap:round;stroke-linejoin:round;stroke-width:2px"/></svg>