<svg width="52px" height="60px" viewBox="0 0 52 60" version="1.1" xmlns="http://www.w3.org/2000/svg">
    <title>icon</title>
    <desc>Created with Sketch.</desc>
    <defs></defs>
    <g id="Page-1" stroke="none" stroke-width="1" fill="none" fill-rule="evenodd">
        <g id="Landing-Page---Final" transform="translate(-678.000000, -1361.000000)">
            <g id="Module---Turn-Payments" transform="translate(197.000000, 1284.000000)">
                <g id="icon" transform="translate(481.000000, 78.000000)">
                    <path d="M51.6666667,29.8333333 C51.6666667,44.1008333 40.1008333,55.6666667 25.8333333,55.6666667 C11.5658333,55.6666667 0,44.1008333 0,29.8333333 C0,15.5658333 11.5658333,4 25.8333333,4 C40.1008333,4 51.6666667,15.5658333 51.6666667,29.8333333" id="Fill-1" fill="#FAFAF2"></path>
                    <path d="M18.7025,52.9433333 C8.455,49.8158333 1,40.2858333 1,29.0141667 C1,15.1991667 12.1991667,4 26.015,4" id="Stroke-3" stroke="#5092DA" stroke-width="1.5" stroke-linecap="round" stroke-linejoin="round"></path>
                    <path d="M32.0666667,5 C42.95,7.71166667 51.0141667,17.5508333 51.0141667,29.2741667 C51.0141667,43.0891667 39.815,54.2883333 26,54.2883333" id="Stroke-5" stroke="#5092DA" stroke-width="1.5" stroke-linecap="round" stroke-linejoin="round"></path>
                    <polyline id="Stroke-7" stroke="#5092DA" stroke-width="1.5" stroke-linecap="round" stroke-linejoin="round" points="21.425 0 25.8458333 4.43833333 21 9.265"></polyline>
                    <polyline id="Stroke-9" stroke="#5092DA" stroke-width="1.5" stroke-linecap="round" stroke-linejoin="round" points="30.4733333 58.2691667 26 53.8841667 30.7883333 49"></polyline>
                    <path d="M20,30 L29.2333333,30" id="Stroke-11" stroke="#5092DA" stroke-width="1.5" stroke-linecap="round" stroke-linejoin="round"></path>
                    <path d="M32.43,24.6166667 C32.43,22.0675 30.3633333,20 27.8133333,20 C25.2641667,20 23.1966667,22.0675 23.1966667,24.6166667 L23.1966667,35.1091667 C23.1966667,37.4283333 21.3191667,39.3058333 19,39.3058333 L32.43,39.3058333" id="Stroke-13" stroke="#5092DA" stroke-width="1.5" stroke-linecap="round" stroke-linejoin="round"></path>
                </g>
            </g>
        </g>
    </g>
</svg>
