<svg xmlns="http://www.w3.org/2000/svg" width="38.69" height="34.66" viewBox="0 0 38.69 34.66"><title>Pricingfrom1</title><path d="M21.36,30.85A15.59,15.59,0,0,1,.77,17a15.57,15.57,0,0,1,30.3-5.72,15.37,15.37,0,0,1,.79,4.89" style="fill:#f2faf2;stroke:#5092da;stroke-miterlimit:10;stroke-width:1.5px"/><line x1="12.46" y1="16.49" x2="18.27" y2="16.49" style="fill:none;stroke:#5092da;stroke-miterlimit:10;stroke-width:1.5px"/><path d="M20.58,12.94A3,3,0,0,0,17,10a3.1,3.1,0,0,0-2.46,3.1v6.67a2.73,2.73,0,0,1-2.74,2.73h8.36" style="fill:none;stroke:#5092da;stroke-miterlimit:10;stroke-width:1.5px"/><ellipse cx="30.3" cy="26.32" rx="7.64" ry="7.6" style="fill:#f2faf2;stroke:#5092da;stroke-miterlimit:10;stroke-width:1.5px"/><polyline points="27.11 27.29 29.11 29.62 33.94 23.86" style="fill:none;stroke:#5092da;stroke-miterlimit:10;stroke-width:1.5px"/></svg>