<svg xmlns="http://www.w3.org/2000/svg" width="83.98" height="85.75" viewBox="0 0 83.98 85.75"><title>Security</title><path d="M83,72.09a7.12,7.12,0,0,1-7.13,7.11H8.13A7.12,7.12,0,0,1,1,72.09v-64A7.12,7.12,0,0,1,8.13,1H75.85A7.12,7.12,0,0,1,83,8.11Z" style="fill:#f2f7fd;stroke:#5092da;stroke-miterlimit:10;stroke-width:2px"/><line x1="15.13" y1="79.2" x2="15.13" y2="84.75" style="fill:none;stroke:#5092da;stroke-linecap:round;stroke-linejoin:round;stroke-width:2px"/><line x1="73.85" y1="79.2" x2="73.85" y2="84.75" style="fill:none;stroke:#5092da;stroke-linecap:round;stroke-linejoin:round;stroke-width:2px"/><path d="M11.69,57.87v3.55a7.12,7.12,0,0,0,7.13,7.11H65.16a7.12,7.12,0,0,0,7.13-7.11V18.77a7.12,7.12,0,0,0-7.13-7.11H18.82a7.12,7.12,0,0,0-7.13,7.11v3.55" style="fill:none;stroke:#5092da;stroke-linecap:round;stroke-linejoin:round;stroke-width:2px"/><line x1="11.69" y1="32.99" x2="11.69" y2="47.21" style="fill:none;stroke:#5092da;stroke-linecap:round;stroke-linejoin:round;stroke-width:2px"/><rect x="8.13" y="22.33" width="7.13" height="10.66" style="fill:none;stroke:#5092da;stroke-linecap:round;stroke-linejoin:round;stroke-width:2px"/><rect x="8.13" y="47.21" width="7.13" height="10.66" style="fill:none;stroke:#5092da;stroke-linecap:round;stroke-linejoin:round;stroke-width:2px"/><ellipse cx="43.77" cy="40.1" rx="16.04" ry="16" style="fill:#fff;stroke:#5092da;stroke-linecap:round;stroke-linejoin:round;stroke-width:2px"/><ellipse cx="43.77" cy="40.1" rx="8.91" ry="8.89" style="fill:none;stroke:#5092da;stroke-linecap:round;stroke-linejoin:round;stroke-width:2px"/><line x1="43.77" y1="24.1" x2="43.77" y2="31.21" style="fill:none;stroke:#5092da;stroke-linecap:round;stroke-linejoin:round;stroke-width:2px"/><line x1="32.43" y1="28.79" x2="37.47" y2="33.82" style="fill:none;stroke:#5092da;stroke-linecap:round;stroke-linejoin:round;stroke-width:2px"/><line x1="27.73" y1="40.1" x2="34.86" y2="40.1" style="fill:none;stroke:#5092da;stroke-linecap:round;stroke-linejoin:round;stroke-width:2px"/><line x1="32.43" y1="51.41" x2="37.47" y2="46.39" style="fill:none;stroke:#5092da;stroke-linecap:round;stroke-linejoin:round;stroke-width:2px"/><line x1="43.77" y1="56.1" x2="43.77" y2="48.99" style="fill:none;stroke:#5092da;stroke-linecap:round;stroke-linejoin:round;stroke-width:2px"/><line x1="55.12" y1="51.41" x2="50.08" y2="46.39" style="fill:none;stroke:#5092da;stroke-linecap:round;stroke-linejoin:round;stroke-width:2px"/><line x1="59.81" y1="40.1" x2="52.68" y2="40.1" style="fill:none;stroke:#5092da;stroke-linecap:round;stroke-linejoin:round;stroke-width:2px"/><line x1="55.12" y1="28.79" x2="50.08" y2="33.82" style="fill:none;stroke:#5092da;stroke-linecap:round;stroke-linejoin:round;stroke-width:2px"/></svg>