<svg width="56px" height="52px" viewBox="0 0 56 52" version="1.1" xmlns="http://www.w3.org/2000/svg">
    <title>SmBusiness-icon</title>
    <desc>Created with Sketch.</desc>
    <defs></defs>
    <g id="Page-1" stroke="none" stroke-width="1" fill="none" fill-rule="evenodd">
        <g id="Landing-Page---Final" transform="translate(-296.000000, -477.000000)">
            <g id="Header" transform="translate(-3.000000, 59.000000)">
                <g id="How-Can-we-Help-Modules" transform="translate(173.000000, 381.000000)">
                    <g id="Deal-Copy-4" transform="translate(0.000000, 0.117936)">
                        <g id="Group" transform="translate(-0.000000, 0.000000)">
                            <g id="SmBusiness-icon" transform="translate(126.000000, 36.882064)">
                                <g id="Page-1">
                                    <path d="M19.96652,39.4281018 C9.32278667,39.4281018 0.69972,30.7639564 0.69972,20.0689745 C0.69972,9.38250182 9.32278667,0.708901818 19.96652,0.708901818 C29.1803867,0.708901818 36.88692,7.21362909 38.7834533,15.89952" id="Stroke-1" stroke="#5092DA" stroke-width="1.3"></path>
                                    <path d="M55.7805733,34.4814836 C55.7805733,43.9398109 48.21124,51.6074473 38.8741733,51.6074473 C29.5371067,51.6074473 21.9677733,43.9398109 21.9677733,34.4814836 C21.9677733,25.0231564 29.5371067,17.35552 38.8741733,17.35552 C48.21124,17.35552 55.7805733,25.0231564 55.7805733,34.4814836" id="Fill-3" fill="#FFFFFF"></path>
                                    <path d="M38.4556667,47.8473745 C45.8934,47.8473745 51.9227333,41.7889018 51.9227333,34.3150836 C51.9227333,26.8412655 45.8934,20.7827927 38.4556667,20.7827927 C31.0179333,20.7827927 24.9886,26.8412655 24.9886,34.3150836 C24.9886,41.7889018 31.0179333,47.8473745 38.4556667,47.8473745 Z" id="Stroke-5" stroke="#5092DA" stroke-width="1.3"></path>
                                    <path d="M35.0690667,34 L40.6681333,34" id="Stroke-7" stroke="#4A90E2" stroke-width="1.3"></path>
                                    <path d="M42.5175333,30.8960364 C42.5175333,29.2982182 41.0708667,28.0228 39.4935333,28.0228 C37.9162,28.0228 36.4686,29.3398182 36.4686,30.9376364 L36.4686,37.5142182 C36.4686,38.9673818 35.6258,40.0612727 34.1903333,40.0612727 L42.5343333,40.0612727" id="Stroke-9" stroke="#4A90E2" stroke-width="1.3"></path>
                                    <polyline id="Stroke-11" stroke="#4A90E2" stroke-width="1.3" points="19.6714 10.2841818 19.6714 21.1550182 27.6038 21.1550182"></polyline>
                                    <path d="M4.62364,20 L7.19030667,20" id="Stroke-13" stroke="#4A90E2" stroke-width="1.3"></path>
                                    <path d="M19,2.83986182 L19,5.43986182" id="Stroke-15" stroke="#4A90E2" stroke-width="1.3"></path>
                                    <path d="M18,32.9716873 L18,35.8080509" id="Stroke-17" stroke="#4A90E2" stroke-width="1.3"></path>
                                </g>
                            </g>
                        </g>
                    </g>
                </g>
            </g>
        </g>
    </g>
</svg>
