<?xml version="1.0" encoding="UTF-8" standalone="no"?>
<svg width="46px" height="60px" viewBox="0 0 46 60" version="1.1" xmlns="http://www.w3.org/2000/svg">
    <!-- Generator: Sketch 3.6.1 (26313) - http://www.bohemiancoding.com/sketch -->
    <title>tablet-fill-icon</title>
    <desc>Created with Sketch.</desc>
    <defs></defs>
    <g id="Page-1" stroke="none" stroke-width="1" fill="none" fill-rule="evenodd">
        <g id="Desktop" transform="translate(-795.000000, -322.000000)">
            <g id="tablet-fill-icon" transform="translate(795.000000, 322.000000)">
                <path d="M8,46 L38,46 L38,10 L8,10 L8,46 Z" id="Fill-3" fill="#F2FAF2"></path>
                <path d="M40,0 L6,0 C2.691,0 0,2.691 0,6 L0,54 C0,57.309 2.691,60 6,60 L40,60 C43.309,60 46,57.309 46,54 L46,6 C46,2.691 43.309,0 40,0 Z M44,54 C44,56.206 42.206,58 40,58 L6,58 C3.794,58 2,56.206 2,54 L2,6 C2,3.794 3.794,2 6,2 L40,2 C42.206,2 44,3.794 44,6 L44,54 Z M6,48 L40,48 L40,8 L6,8 L6,48 Z M8,46 L38,46 L38,10 L8,10 L8,46 Z M23,6 C23.552,6 24,5.552 24,5 C24,4.448 23.552,4 23,4 C22.448,4 22,4.448 22,5 C22,5.552 22.448,6 23,6 Z M23,50 C21.346,50 20,51.346 20,53 C20,54.654 21.346,56 23,56 C24.654,56 26,54.654 26,53 C26,51.346 24.654,50 23,50 Z M23,54 C22.448,54 22,53.551 22,53 C22,52.449 22.448,52 23,52 C23.552,52 24,52.449 24,53 C24,53.551 23.552,54 23,54 Z" id="Combined-Shape" fill="#5092DA"></path>
            </g>
        </g>
    </g>
</svg>