<svg xmlns="http://www.w3.org/2000/svg" width="62.01" height="60.33" viewBox="0 0 62.01 60.33"><title>TransformCustomer</title><path d="M35.27,33.52c-2-.66-4.11-1.36-6.27-2.18V25s3.82-1.57,3.82-7.63c2,0,2-5.27,0-5.27,0-.6,2.11-4.09,1.27-7.45-1.21-4.84-15.33-4.84-16.54,0-6-1.21-2.54,6.82-2.54,7.63-2,0-2,5.09,0,5.09C15,23.41,18.82,25,18.82,25v6.36C11.75,34,3.33,35.81,2.28,39,1.08,42.61,1,49.15,1,49.15H27.72a17.3,17.3,0,0,1,6.75-15.26Z" style="fill:#fefaea"/><circle cx="48.29" cy="46.61" r="12.72" style="fill:#fefaea;stroke:#5092da;stroke-miterlimit:10;stroke-width:2px"/><path d="M35.27,33.52c-2-.66-4.11-1.36-6.27-2.18V25s3.82-1.57,3.82-7.63c2,0,2-5.27,0-5.27,0-.6,2.11-4.09,1.27-7.45-1.21-4.84-15.33-4.84-16.54,0-6-1.21-2.54,6.82-2.54,7.63-2,0-2,5.09,0,5.09C15,23.41,18.82,25,18.82,25v6.36C11.75,34,3.33,35.81,2.28,39,1.08,42.61,1,49.15,1,49.15H27.72" style="fill:none;stroke:#5092da;stroke-miterlimit:10;stroke-width:2px"/><polyline points="41.41 47.51 45.48 51.58 55.22 41.84" style="fill:#fefaea;stroke:#5092da;stroke-miterlimit:10;stroke-width:2px"/></svg>