<svg xmlns="http://www.w3.org/2000/svg" width="56.85" height="60" viewBox="0 0 56.85 60"><title>Transparentfees</title><polyline points="20.79 46.9 20.79 54.01 36.06 54.01 36.06 46.9" style="fill:#fefaea;stroke:#5092da;stroke-miterlimit:10;stroke-width:2px"/><line x1="22.74" y1="54.01" x2="34.11" y2="54.01" style="fill:#fefaea;stroke:#5092da;stroke-miterlimit:10;stroke-width:2px"/><line x1="28.43" y1="55.21" x2="28.43" y2="60" style="fill:#fefaea;stroke:#5092da;stroke-miterlimit:10;stroke-width:2px"/><circle cx="28.43" cy="28.43" r="19.9" style="fill:#fefaea;stroke:#5092da;stroke-miterlimit:10;stroke-width:2px"/><line x1="28.43" x2="28.43" y2="3.74" style="fill:#fefaea;stroke:#5092da;stroke-miterlimit:10;stroke-width:2px"/><line x1="48.52" y1="8.33" x2="46.52" y2="10.34" style="fill:#fefaea;stroke:#5092da;stroke-miterlimit:10;stroke-width:2px"/><line x1="56.85" y1="28.43" x2="54.01" y2="28.43" style="fill:#fefaea;stroke:#5092da;stroke-miterlimit:10;stroke-width:2px"/><line x1="48.52" y1="48.52" x2="46.52" y2="46.52" style="fill:#fefaea;stroke:#5092da;stroke-miterlimit:10;stroke-width:2px"/><line x1="8.33" y1="8.33" x2="10.34" y2="10.34" style="fill:#fefaea;stroke:#5092da;stroke-miterlimit:10;stroke-width:2px"/><line y1="28.43" x2="2.84" y2="28.43" style="fill:#fefaea;stroke:#5092da;stroke-miterlimit:10;stroke-width:2px"/><line x1="8.33" y1="48.52" x2="10.34" y2="46.52" style="fill:#fefaea;stroke:#5092da;stroke-miterlimit:10;stroke-width:2px"/><path d="M34.21,23.23a4.21,4.21,0,1,0-8.42,0V32.8A3.82,3.82,0,0,1,22,36.62H34.21" style="fill:#fefaea;stroke:#5092da;stroke-miterlimit:10;stroke-width:2px"/><line x1="22.73" y1="28.2" x2="30.18" y2="28.2" style="fill:#fefaea;stroke:#5092da;stroke-miterlimit:10;stroke-width:2px"/><line x1="28" y1="40.48" x2="28" y2="47.36" style="fill:#fefaea;stroke:#5092da;stroke-miterlimit:10;stroke-width:2px"/></svg>