<svg xmlns="http://www.w3.org/2000/svg" width="59.92" height="61.09" viewBox="0 0 59.92 61.09"><title>TransformExperience</title><rect x="1" y="5.83" width="48.33" height="12.08" style="fill:#fff7f6"/><polyline points="49.33 23.95 49.33 5.83 39.66 5.83" style="fill:#fff7f6;stroke:#5092da;stroke-miterlimit:10;stroke-width:2px"/><polyline points="10.66 5.83 1 5.83 1 46.84 22.75 46.84" style="fill:none;stroke:#5092da;stroke-miterlimit:10;stroke-width:2px"/><rect x="10.67" y="1" width="7.25" height="9.67" style="fill:#fff7f6;stroke:#5092da;stroke-miterlimit:10;stroke-width:2px"/><rect x="32.41" y="1" width="7.25" height="9.67" style="fill:#fff7f6;stroke:#5092da;stroke-miterlimit:10;stroke-width:2px"/><line x1="17.91" y1="5.83" x2="32.41" y2="5.83" style="fill:#fff7f6;stroke:#5092da;stroke-miterlimit:10;stroke-width:2px"/><line x1="1" y1="17.91" x2="49.33" y2="17.91" style="fill:#fff7f6;stroke:#5092da;stroke-miterlimit:10;stroke-width:2px"/><circle cx="44.42" cy="45.59" r="14.5" style="fill:#fff7f6;stroke:#5092da;stroke-miterlimit:10;stroke-width:2px"/><polyline points="49.29 46.84 43.25 46.84 43.25 38.38" style="fill:#fff7f6;stroke:#5092da;stroke-miterlimit:10;stroke-width:2px"/><line x1="14.82" y1="22.3" x2="14.82" y2="41.24" style="fill:none;stroke:#5092da;stroke-miterlimit:10;stroke-width:2px"/><line x1="36.49" y1="22.3" x2="36.49" y2="31.09" style="fill:none;stroke:#5092da;stroke-miterlimit:10;stroke-width:2px"/><line x1="8.67" y1="28.64" x2="42.49" y2="28.64" style="fill:none;stroke:#5092da;stroke-miterlimit:10;stroke-width:2px"/><line x1="8.67" y1="36.22" x2="29.46" y2="36.22" style="fill:none;stroke:#5092da;stroke-miterlimit:10;stroke-width:2px"/><line x1="26.05" y1="22.3" x2="26.05" y2="41.24" style="fill:none;stroke:#5092da;stroke-miterlimit:10;stroke-width:2px"/></svg>