<?xml version="1.0" encoding="UTF-8"?>
<svg width="57px" height="60px" viewBox="0 0 57 60" version="1.1" xmlns="http://www.w3.org/2000/svg" xmlns:xlink="http://www.w3.org/1999/xlink">
    <!-- Generator: Sketch 41.2 (35397) - http://www.bohemiancoding.com/sketch -->
    <title>Transparentfees-euro</title>
    <desc>Created with Sketch.</desc>
    <defs></defs>
    <g id="Page-1" stroke="none" stroke-width="1" fill="none" fill-rule="evenodd">
        <g id="Transparentfees-euro">
            <polyline id="Shape" stroke="#5092DA" stroke-width="2" fill="#FEFAEA" points="20.79 46.9 20.79 54.01 36.06 54.01 36.06 46.9"></polyline>
            <path d="M22.74,54.01 L34.11,54.01" id="Shape" stroke="#5092DA" stroke-width="2" fill="#FEFAEA"></path>
            <path d="M28.43,55.21 L28.43,60" id="Shape" stroke="#5092DA" stroke-width="2" fill="#FEFAEA"></path>
            <circle id="Oval" stroke="#5092DA" stroke-width="2" fill="#FEFAEA" cx="28.43" cy="28.43" r="19.9"></circle>
            <path d="M28.43,0 L28.43,3.74" id="Shape" stroke="#5092DA" stroke-width="2" fill="#FEFAEA"></path>
            <path d="M48.52,8.33 L46.52,10.34" id="Shape" stroke="#5092DA" stroke-width="2" fill="#FEFAEA"></path>
            <path d="M56.85,28.43 L54.01,28.43" id="Shape" stroke="#5092DA" stroke-width="2" fill="#FEFAEA"></path>
            <path d="M48.52,48.52 L46.52,46.52" id="Shape" stroke="#5092DA" stroke-width="2" fill="#FEFAEA"></path>
            <path d="M8.33,8.33 L10.34,10.34" id="Shape" stroke="#5092DA" stroke-width="2" fill="#FEFAEA"></path>
            <path d="M0,28.43 L2.84,28.43" id="Shape" stroke="#5092DA" stroke-width="2" fill="#FEFAEA"></path>
            <path d="M8.33,48.52 L10.34,46.52" id="Shape" stroke="#5092DA" stroke-width="2" fill="#FEFAEA"></path>
            <path d="M33.7289951,34.7716498 L33.7289951,36.8329901 L32.9140467,37.0606962 C31.5797616,37.4202341 30.3693356,37.6000004 29.2827322,37.6000004 C27.0695767,37.6000004 25.3058701,37.0267458 23.9915594,35.8802194 C22.6772487,34.733693 21.8163681,33.0139293 21.4088918,30.7208765 L19,30.7208765 L19.6112114,29.2467786 L21.2051547,29.2467786 C21.1891752,28.8552817 21.1811856,28.5556713 21.1811856,28.3479383 C21.1811856,28.0363388 21.2051544,27.5489726 21.2530928,26.8858249 L19,26.8858249 L19.6112114,25.3997424 L21.4927836,25.3997424 C21.9881469,23.2664843 22.9169391,21.6665647 24.2791883,20.5999356 C25.6414374,19.5333065 27.4410972,19 29.6782219,19 C30.8447226,19 32.1869772,19.1757714 33.7050261,19.5273196 L33.7050261,21.7085052 C32.2429053,21.1412343 30.9086403,20.8576031 29.7021909,20.8576031 C28.2720291,20.8576031 27.0755849,21.2371097 26.1128223,21.9961341 C25.1500597,22.7551585 24.4250025,23.8896833 23.937629,25.3997424 L32.1710054,25.3997424 L31.5597941,26.8858249 L23.6140465,26.8858249 C23.5661081,27.5329931 23.5421393,28.0163646 23.5421393,28.3359538 C23.5421393,28.5436868 23.5501289,28.847292 23.5661083,29.2467786 L30.5770621,29.2467786 L29.9658507,30.7208765 L23.8297681,30.7208765 C24.2771931,32.3587714 24.9742866,33.587174 25.9210697,34.4061214 C26.8678528,35.2250689 28.0682919,35.6345364 29.5224229,35.6345364 C30.7128928,35.6345364 32.1150695,35.3469104 33.7289951,34.7716498 Z" id="€" fill="#5092DA"></path>
            <path d="M28,40.48 L28,47.36" id="Shape" stroke="#5092DA" stroke-width="2" fill="#FEFAEA"></path>
        </g>
    </g>
</svg>