<svg width="54px" height="50px" viewBox="0 0 54 50" version="1.1" xmlns="http://www.w3.org/2000/svg">
    <title>Artboard</title>
    <desc>Created with Sketch.</desc>
    <defs></defs>
    <g id="Page-1" stroke="none" stroke-width="1" fill="none" fill-rule="evenodd">
        <g id="Artboard" stroke="#5092DA" stroke-width="1.3">
            <g id="update-dd-icon" transform="translate(1.000000, 1.000000)">
                <path d="M22.6419804,37.6459121 L4.51161004,37.6459121 C2.25092664,37.6459121 0.415992354,35.8109779 0.415992354,33.5497401 L0.415992354,4.87764452 C0.415992354,2.61640677 2.25092664,0.781472481 4.51161004,0.781472481 L43.4244129,0.781472481 C45.6873137,0.781472481 47.5205849,2.61640677 47.5205849,4.87764452 L47.5205849,23.4559384" id="Stroke-1"></path>
                <path d="M0.415770609,10.365591 L47.5203632,10.365591" id="Stroke-3"></path>
                <path d="M7.58387766,4.87742278 C8.14932569,4.87742278 8.60778208,5.33587917 8.60778208,5.9013272 C8.60778208,6.46677523 8.14932569,6.92523162 7.58387766,6.92523162 C7.01842963,6.92523162 6.55997324,6.46677523 6.55997324,5.9013272 C6.55997324,5.33587917 7.01842963,4.87742278 7.58387766,4.87742278 Z" id="Stroke-5"></path>
                <path d="M13.7279694,4.87742278 C14.2934174,4.87742278 14.7518738,5.33587917 14.7518738,5.9013272 C14.7518738,6.46677523 14.2934174,6.92523162 13.7279694,6.92523162 C13.1625214,6.92523162 12.704065,6.46677523 12.704065,5.9013272 C12.704065,5.33587917 13.1625214,4.87742278 13.7279694,4.87742278 Z" id="Stroke-7"></path>
                <path d="M19.8720612,4.87742278 C20.4375092,4.87742278 20.8959656,5.33587917 20.8959656,5.9013272 C20.8959656,6.46677523 20.4375092,6.92523162 19.8720612,6.92523162 C19.3066131,6.92523162 18.8481568,6.46677523 18.8481568,5.9013272 C18.8481568,5.33587917 19.3066131,4.87742278 19.8720612,4.87742278 Z" id="Stroke-9"></path>
                <path d="M20.3116139,22.4189511 L18.8458839,23.2654601 L20.3099508,25.8016608 L21.7773438,24.9540431 C22.3588683,25.5017516 23.0562542,25.9058806 23.8201634,26.1359403 L23.8201634,27.8284039 L26.749406,27.8284039 L26.749406,26.1387121 C27.5415876,25.9014457 28.2223427,25.4823489 28.7877907,24.9496082 L30.2596186,25.8005521 L31.7242399,23.263797 L30.2524119,22.4128531 C30.4325792,21.6572593 30.4497644,20.857871 30.2596186,20.0551566 L31.7242399,19.2103107 L30.2596186,16.67411 L28.7922256,17.5217277 C28.2107011,16.9740192 27.5138695,16.5698902 26.749406,16.3414935 L26.749406,14.6484756 L23.8201634,14.6484756 L23.8201634,16.3398304 C23.0296449,16.5770969 22.3488898,16.9945305 21.7851049,17.5261626 L20.3099508,16.67411 L18.8458839,19.2103107 L20.3204836,20.0629176 C20.1419795,20.8168483 20.1225768,21.6151279 20.3116139,22.4189511 Z" id="Stroke-11"></path>
                <path d="M27.4815503,21.2386061 C27.4815503,22.4515475 26.4981142,23.435538 25.2846184,23.435538 C24.0716769,23.435538 23.0882409,22.4515475 23.0882409,21.2386061 C23.0882409,20.0256646 24.0716769,19.0416742 25.2846184,19.0416742 C26.4981142,19.0416742 27.4815503,20.0256646 27.4815503,21.2386061 Z" id="Stroke-13"></path>
                <path d="M30.1063933,37.9753133 L27.7952631,39.3079967 L30.7245056,44.3809525 L33.0267661,43.0510409 C33.9991149,43.9297028 35.1643814,44.612121 36.4765534,45.0356526 L36.4765534,47.7021282 L42.3344841,47.7021282 L42.3344841,45.0323265 C43.6100683,44.6193277 44.7875307,43.9457793 45.782054,43.0493779 L48.0870863,44.3809525 L51.0157744,39.3079967 L48.7046442,37.9736503 C48.9945749,36.6221186 48.9784984,35.2750218 48.7046442,34.0005463 L51.0157744,32.6650911 L48.0870863,27.5921353 L45.7831627,28.92371 C44.8124769,28.043385 43.6449931,27.3626299 42.332821,26.9379896 L42.332821,24.2709597 L36.4754447,24.2709597 L36.4754447,26.9407614 C35.1981974,27.3554233 34.0223981,28.0289716 33.0278748,28.92371 L30.7228425,27.5921353 L27.7941544,32.6650911 L30.1036215,33.9994376 C29.8147995,35.3509693 29.830876,36.6997291 30.1063933,37.9753133 Z" id="Stroke-15"></path>
                <path d="M43.7974977,35.9865994 C43.7974977,38.4130366 41.8306256,40.3799088 39.4041883,40.3799088 C36.977751,40.3799088 35.0108789,38.4130366 35.0108789,35.9865994 C35.0108789,33.5601621 36.977751,31.5932899 39.4041883,31.5932899 C41.8306256,31.5932899 43.7974977,33.5601621 43.7974977,35.9865994 Z" id="Stroke-17"></path>
            </g>
        </g>
    </g>
</svg>
